<svg width="100" height="100" viewBox="0 0 100 100" fill="none" xmlns="http://www.w3.org/2000/svg">
<rect x="0.5" y="0.5" width="99" height="99" rx="7.5" fill="black" stroke="#D2D2D2"/>
<path d="M80.1254 28C76.6879 24.25 71.6879 22.0625 66.6879 21.75H66.0629C59.8129 21.75 54.1879 24.875 50.4379 29.875C47.0004 23.3125 40.4379 19.25 33.2504 19.25H32.9379C27.6254 19.25 22.3129 21.4375 18.8754 25.5C15.1254 29.25 13.2504 34.5625 13.5629 39.875C14.1879 49.25 18.8754 53.9375 23.2504 58C28.2504 63 32.9379 67.0625 31.3754 78.9375C31.3754 80.8125 32.3129 82.0625 33.8754 82.0625C34.5004 82.0625 34.8129 82.0625 35.7504 81.75C68.2504 71.75 85.4379 58.3125 85.4379 43.3125V43C85.7504 37.0625 83.8754 32.0625 80.1254 28ZM33.8754 80.1875V78.625V80.1875Z" fill="white"/>
</svg>
