<svg width="100" height="100" viewBox="0 0 100 100" fill="none" xmlns="http://www.w3.org/2000/svg">
<rect x="0.5" y="0.5" width="99" height="99" rx="7.5" fill="#C5D4E8" stroke="#D2D2D2"/>
<path d="M59.95 16.125H39.05C25.8366 16.125 15.125 26.8366 15.125 40.05V60.95C15.125 74.1634 25.8366 84.875 39.05 84.875H59.95C73.1634 84.875 83.875 74.1634 83.875 60.95V40.05C83.875 26.8366 73.1634 16.125 59.95 16.125Z" fill="#AC5F27"/>
<path d="M69.0121 26.6719H60.6496C57.6927 26.6727 54.8571 27.8477 52.7663 29.9385C50.6754 32.0294 49.5004 34.865 49.4996 37.8219C49.4988 34.865 48.3238 32.0294 46.2329 29.9385C44.1421 27.8477 41.3065 26.6727 38.3496 26.6719H29.9871C27.0297 26.6719 24.1933 27.8465 22.1018 29.9374C20.0102 32.0284 18.8348 34.8644 18.834 37.8219V59.3094C18.834 62.1121 19.3861 64.8874 20.4587 67.4768C21.5314 70.0662 23.1036 72.4189 25.0856 74.4006C27.0676 76.3823 29.4205 77.9542 32.0101 79.0264C34.5996 80.0987 37.375 80.6504 40.1777 80.65H58.8215C61.6241 80.6504 64.3993 80.0987 66.9887 79.0264C69.578 77.9541 71.9308 76.3821 73.9125 74.4004C75.8942 72.4186 77.4662 70.0659 78.5385 67.4766C79.6108 64.8872 80.1625 62.112 80.1621 59.3094V37.8219C80.1621 34.8647 78.9874 32.0287 76.8963 29.9376C74.8053 27.8466 71.9693 26.6719 69.0121 26.6719Z" fill="#F6B483"/>
<path d="M83.8756 56.5566C79.6264 62.92 73.8539 68.1204 67.0831 71.6848C60.3123 75.2492 52.7579 77.0646 45.1068 76.966C27.7881 76.966 24.5975 73.841 16.5381 69.0629C18.2091 73.6937 21.2673 77.6966 25.2959 80.5263C29.3245 83.3559 34.1275 84.8746 39.0506 84.8754H59.9506C66.2959 84.8754 72.3813 82.3547 76.8681 77.8679C81.3549 73.3811 83.8756 67.2957 83.8756 60.9504V56.5566Z" fill="#924D22"/>
<path d="M55.9654 54.8027L50.7498 51.0902C50.3851 50.8296 49.948 50.6895 49.4998 50.6895C49.0515 50.6895 48.6145 50.8296 48.2498 51.0902L43.0342 54.8027C42.5901 55.1189 42.2824 55.5918 42.1734 56.126C42.0644 56.6602 42.162 57.2158 42.4467 57.6808L48.8185 68.0402C48.8896 68.1572 48.9896 68.254 49.1089 68.3212C49.2282 68.3884 49.3629 68.4236 49.4998 68.4236C49.6367 68.4236 49.7713 68.3884 49.8907 68.3212C50.01 68.254 50.11 68.1572 50.181 68.0402L56.5529 57.687C56.8394 57.2215 56.9382 56.6644 56.829 56.1288C56.7199 55.5931 56.4112 55.119 55.9654 54.8027Z" fill="#D3793B"/>
<path d="M80.0432 61.5654C75.656 66.477 70.2682 70.3925 64.242 73.0487C58.2159 75.705 51.6909 77.0405 45.1057 76.9654C34.04 76.9654 28.7432 75.6873 24.2588 73.5279C26.2588 75.7723 28.7113 77.5678 31.455 78.7964C34.1987 80.0249 37.1713 80.6587 40.1775 80.6561H58.8213C64.0914 80.6554 69.175 78.705 73.0931 75.1804C77.0112 71.6557 79.4868 66.8061 80.0432 61.5654Z" fill="#DD996C"/>
<path d="M34.0467 35.8535C32.9665 35.8523 31.9103 36.1715 31.0116 36.7708C30.1129 37.37 29.4122 38.2224 28.9981 39.2201C28.5841 40.2177 28.4752 41.3158 28.6854 42.3753C28.8956 43.4348 29.4154 44.4081 30.179 45.1721C30.9425 45.9362 31.9156 46.4565 32.975 46.6673C34.0344 46.8781 35.1325 46.7699 36.1304 46.3564C37.1282 45.9429 37.981 45.2427 38.5808 44.3443C39.1806 43.446 39.5004 42.3899 39.4998 41.3098C39.499 39.8635 38.9243 38.4766 37.9019 37.4536C36.8795 36.4307 35.493 35.8552 34.0467 35.8535Z" fill="white"/>
<path d="M34.0471 39.5938C33.7069 39.5931 33.3741 39.6935 33.091 39.8821C32.8079 40.0707 32.5871 40.3391 32.4566 40.6533C32.3262 40.9675 32.2919 41.3134 32.3581 41.647C32.4243 41.9807 32.588 42.2873 32.8286 42.5278C33.0692 42.7684 33.3757 42.9322 33.7094 42.9984C34.0431 43.0646 34.3889 43.0303 34.7031 42.8998C35.0173 42.7693 35.2857 42.5486 35.4743 42.2654C35.663 41.9823 35.7633 41.6496 35.7627 41.3094C35.7627 40.8544 35.5819 40.418 35.2602 40.0962C34.9385 39.7745 34.5021 39.5938 34.0471 39.5938Z" fill="#4B2712"/>
<path d="M64.9936 35.8535C63.913 35.8504 62.8558 36.1681 61.9559 36.7662C61.056 37.3644 60.3538 38.2161 59.9383 39.2136C59.5228 40.211 59.4126 41.3094 59.6218 42.3695C59.8309 43.4296 60.35 44.4039 61.1131 45.1688C61.8763 45.9338 62.8494 46.455 63.909 46.6666C64.9687 46.8782 66.0673 46.7705 67.0657 46.3573C68.0641 45.9441 68.9175 45.2439 69.5177 44.3453C70.1179 43.4468 70.4379 42.3903 70.4373 41.3098C70.4365 39.8651 69.8631 38.4797 68.8427 37.457C67.8223 36.4342 66.4382 35.8577 64.9936 35.8535Z" fill="white"/>
<path d="M64.9912 39.5938C64.6511 39.5938 64.3187 39.6946 64.036 39.8836C63.7533 40.0726 63.533 40.3412 63.403 40.6555C63.273 40.9697 63.2391 41.3155 63.3057 41.649C63.3723 41.9825 63.5363 42.2887 63.777 42.5289C64.0177 42.7692 64.3242 42.9326 64.6578 42.9986C64.9914 43.0646 65.3371 43.0301 65.6511 42.8995C65.9651 42.769 66.2333 42.5482 66.4218 42.2651C66.6103 41.9821 66.7106 41.6494 66.71 41.3094C66.7091 40.8541 66.5277 40.4177 66.2054 40.0961C65.8832 39.7744 65.4465 39.5937 64.9912 39.5938Z" fill="#4B2712"/>
</svg>
