<svg width="100" height="100" viewBox="0 0 100 100" fill="none" xmlns="http://www.w3.org/2000/svg">
<rect x="0.5" y="0.5" width="99" height="99" rx="7.5" stroke="#D2D2D2"/>
<path d="M66.7543 74.3368C66.7543 74.3368 74.0106 73.7997 76.3758 64.3003C78.7411 54.801 78.8053 46.0795 77.2505 40.9528C75.6957 35.8262 72.197 34.8116 72.197 34.8116C72.197 34.8116 73.8878 31.354 68.2562 25.8335C64.6667 22.3202 44.2127 16.0178 32.1409 25.8335C18.6674 36.791 22.3513 51.8428 25.7178 57.246L66.7543 74.3368Z" fill="#002030"/>
<path d="M66.7539 74.3371C70.0241 71.7848 75.2552 68.55 75.2079 48.6104H68.7848L66.7539 74.3371Z" fill="#002030"/>
<path d="M48.1947 79.6664C54.6368 79.6664 62.1519 78.8607 66.7539 74.3368C71.3559 69.8129 71.815 58.1849 69.053 46.7181C66.2911 35.2512 55.7098 32.665 48.1947 32.665C40.6796 32.665 30.0965 35.2512 27.3345 46.7181C24.5725 58.1849 25.0184 68.3388 30.0889 73.3859C34.6702 77.9376 41.7526 79.6664 48.1947 79.6664Z" fill="#FFC8AC"/>
<path d="M54.0468 70.5493C54.0468 70.5493 53.2081 74.727 48.4322 74.7688C42.9272 74.8145 42.623 70.4478 42.623 70.4478C42.623 70.4478 43.5846 70.408 48.0242 70.4717C51.0525 70.5135 54.0468 70.5493 54.0468 70.5493Z" fill="#8E3257"/>
<path d="M48.4326 74.7684C47.3648 74.8055 46.302 74.5985 45.3174 74.1616C46.2375 73.23 47.4569 72.6974 48.733 72.6695C49.8964 72.6056 51.0463 72.956 51.9975 73.6642C51.1663 74.273 50.0195 74.7544 48.4326 74.7684Z" fill="#EE7BA5"/>
<path d="M47.0874 64.6245C45.4041 64.5628 43.8758 65.6888 43.8947 66.216C43.9174 67.4475 49.8796 67.6981 49.8154 66.216C49.7832 65.3864 48.5307 64.6742 47.0874 64.6245Z" fill="#FCA39A"/>
<path d="M43.7383 66.5467C44.7962 65.7112 45.5651 64.8816 47.0065 64.8757C48.329 64.8757 49.0393 65.6217 49.7666 66.6661C49.8913 66.8451 50.2106 66.8511 50.1785 66.5706C49.8138 63.4214 44.4486 63.7159 43.6778 66.4592C43.6665 66.495 43.6873 66.5905 43.7383 66.5507V66.5467Z" fill="#9E5147"/>
<path d="M59.2931 50.9219C57.0696 50.9219 53.7918 52.3144 52.8454 55.6964C51.6949 59.7925 54.0809 63.7713 59.2931 63.5763C64.8851 63.3675 66.863 59.8701 66.2642 56.6135C65.6237 53.138 63.1962 50.9358 59.2931 50.9219Z" fill="white"/>
<path d="M52.7566 56.4127C53.7956 53.1103 57.3775 51.0692 60.5683 51.7456C61.8604 52.0201 63.2528 52.7681 64.1067 53.8404C65.0626 55.034 65.1986 56.5957 66.0959 57.7913C66.2376 57.9803 66.6098 58.0937 66.7401 57.8251C67.5752 56.1083 66.2716 53.8722 65.1079 52.6348C63.897 51.3437 62.0853 50.4803 60.3756 50.2734C58.58 50.0567 56.7672 50.4768 55.2238 51.467C53.4367 52.6607 52.9247 54.2323 52.613 56.3589C52.596 56.4783 52.7131 56.5579 52.7566 56.4127Z" fill="#002030"/>
<path d="M53.2246 58.2946C53.2246 57.2495 53.5189 56.228 54.0702 55.359C54.6216 54.4901 55.4052 53.8129 56.3221 53.413C57.2389 53.013 58.2478 52.9084 59.2211 53.1123C60.1945 53.3161 61.0885 53.8194 61.7903 54.5583C62.492 55.2973 62.9699 56.2388 63.1635 57.2638C63.3571 58.2887 63.2577 59.3511 62.878 60.3166C62.4982 61.2821 61.8551 62.1073 61.0299 62.6879C60.2048 63.2685 59.2346 63.5784 58.2423 63.5784C57.5833 63.5787 56.9307 63.4422 56.3218 63.1767C55.7129 62.9113 55.1597 62.5221 54.6937 62.0314C54.2277 61.5407 53.8581 60.9581 53.6061 60.3169C53.354 59.6757 53.2244 58.9885 53.2246 58.2946Z" fill="#19313A"/>
<path d="M54.2568 57.815C54.2568 57.4809 54.3509 57.1544 54.5271 56.8766C54.7034 56.5989 54.9539 56.3824 55.247 56.2545C55.54 56.1267 55.8625 56.0933 56.1736 56.1584C56.4848 56.2236 56.7706 56.3845 56.9949 56.6207C57.2192 56.8569 57.3719 57.1578 57.4338 57.4855C57.4957 57.8131 57.4639 58.1527 57.3426 58.4613C57.2212 58.7699 57.0156 59.0337 56.7518 59.2193C56.4881 59.4049 56.178 59.504 55.8607 59.504C55.4355 59.5034 55.0278 59.3253 54.7272 59.0087C54.4265 58.6921 54.2573 58.2628 54.2568 57.815Z" fill="white"/>
<path d="M37.1632 50.9219C39.3887 50.9219 42.6626 52.3144 43.611 55.6964C44.7615 59.7925 42.3735 63.7713 37.1632 63.5763C31.5713 63.3675 29.5914 59.8701 30.1922 56.6135C30.8326 53.138 33.2602 50.9358 37.1632 50.9219Z" fill="white"/>
<path d="M43.8415 56.3168C43.5052 54.1166 42.6456 52.3977 40.7489 51.2499C39.8514 50.7242 38.8635 50.3918 37.8429 50.2719C36.8222 50.1521 35.7891 50.2471 34.8037 50.5516C33.434 50.9813 32.0323 51.789 31.0896 52.9389C30.1469 54.0887 28.8226 56.1955 29.7558 57.6836C29.9088 57.9243 30.2829 58.1451 30.4775 57.8248C31.0801 56.8301 31.2331 55.6365 31.8226 54.6279C32.4838 53.4959 33.4076 52.7519 34.5524 52.2127C38.0682 50.5596 42.5002 52.4773 43.6941 56.4223C43.7432 56.5834 43.8585 56.4223 43.8415 56.3168Z" fill="#002030"/>
<path d="M43.2316 58.2946C43.2316 57.2495 42.9373 56.228 42.386 55.359C41.8346 54.4901 41.051 53.8129 40.1341 53.413C39.2172 53.013 38.2084 52.9084 37.235 53.1123C36.2617 53.3161 35.3677 53.8194 34.6659 54.5583C33.9642 55.2973 33.4863 56.2388 33.2927 57.2638C33.0991 58.2887 33.1985 59.3511 33.5782 60.3166C33.958 61.2821 34.6011 62.1073 35.4263 62.6879C36.2514 63.2685 37.2215 63.5784 38.2139 63.5784C39.5447 63.5784 40.821 63.0217 41.7619 62.0308C42.7029 61.0399 43.2316 59.6959 43.2316 58.2946Z" fill="#19313A"/>
<path d="M37.3592 57.815C37.3592 57.4809 37.2651 57.1544 37.0889 56.8766C36.9126 56.5989 36.6621 56.3824 36.3691 56.2545C36.076 56.1267 35.7535 56.0933 35.4424 56.1584C35.1312 56.2236 34.8454 56.3845 34.6211 56.6207C34.3968 56.8569 34.2441 57.1578 34.1822 57.4855C34.1203 57.8131 34.1521 58.1527 34.2735 58.4613C34.3949 58.7699 34.6004 59.0337 34.8642 59.2193C35.1279 59.4049 35.438 59.504 35.7553 59.504C36.1805 59.5034 36.5882 59.3253 36.8888 59.0087C37.1895 58.6921 37.3587 58.2628 37.3592 57.815Z" fill="white"/>
<path d="M63.8767 48.4403C63.9193 48.3329 63.9311 48.2146 63.9107 48.1002C63.7879 47.5033 63.4743 47.0716 63.0927 46.63C62.5646 46.0423 61.9511 45.5468 61.2753 45.1618C59.9719 44.3898 58.4882 44.0203 56.9945 44.0955C56.7132 44.095 56.4352 44.1595 56.1802 44.2845C56.0208 44.3777 55.8857 44.5109 55.7868 44.6723C55.688 44.8337 55.6284 45.0182 55.6135 45.2096C55.5644 45.9158 56.1028 46.2441 56.6941 46.3376L58.0335 46.5524C58.3603 46.6041 58.6872 46.6559 59.0121 46.7255C60.1001 46.9566 61.1444 47.3754 62.1028 47.9649C62.4995 48.2076 62.8906 48.4841 63.3383 48.5836C63.4932 48.6094 63.8011 48.6512 63.8767 48.4403Z" fill="#002030"/>
<path d="M31.5307 47.9259C31.5015 47.8139 31.5015 47.6957 31.5307 47.5837C31.697 47.0028 32.0408 46.589 32.4545 46.1912C33.0237 45.6479 33.6717 45.2039 34.3739 44.8762C35.7296 44.212 37.2355 43.9638 38.719 44.16C38.9996 44.182 39.272 44.2696 39.5162 44.4166C39.6688 44.522 39.7943 44.6654 39.8816 44.834C39.9689 45.0027 40.0154 45.1914 40.0169 45.3835C40.0169 46.0917 39.4501 46.3782 38.8569 46.4219L37.5062 46.5254C37.1756 46.5512 36.8469 46.5771 36.5181 46.6189C35.4156 46.7651 34.3434 47.1011 33.3443 47.6136C32.9325 47.8125 32.5226 48.0672 32.0673 48.1288C31.901 48.1348 31.5912 48.1428 31.5307 47.9259Z" fill="#002030"/>
<path d="M70.2881 53.3431C71.0305 50.8544 74.2856 47.3511 78.045 48.8749C81.8045 50.3988 82.6716 56.3371 80.5765 60.7456C78.4814 65.1541 72.7591 66.7795 70.63 63.5726L70.2881 53.3431Z" fill="#FFC8AC"/>
<path d="M70.0766 56.4564C70.0294 56.6036 70.2202 56.9199 70.3865 56.8045C71.0949 56.3151 71.5993 55.5989 72.3399 55.1593C73.1232 54.7064 74.0226 54.526 74.9091 54.644C75.3229 55.2408 75.695 55.7143 75.6063 56.6334C75.5319 57.4798 75.2068 58.2801 74.6768 58.9212C74.2612 59.3867 73.634 59.518 73.1239 59.8403C73.0842 59.8642 73.0445 59.9955 73.1107 60.0114C75.5269 60.6321 77.1478 57.091 76.4035 55.0379C77.7675 55.6347 78.8972 56.8463 78.8254 58.5293C78.8254 58.6069 78.8991 58.589 78.9218 58.5293C80.9167 53.2713 71.6465 51.4132 70.0766 56.4564Z" fill="#9E5147"/>
<path d="M69.5347 48.8748C69.5347 48.8748 64.9591 44.8682 62.3067 36.5525L61.3376 36.9782C52.3431 40.9226 42.2402 41.0047 33.189 37.207C31.9591 38.7548 27.0643 40.7342 25.7116 57.2501C25.7116 57.2501 22.2412 43.0001 28.4925 33.6042C34.7438 24.2084 45.7992 22.6288 58.2431 24.9862C66.597 26.5698 75.682 33.4908 75.2079 48.6102C74.3464 55.1752 71.1159 58.8914 70.432 57.66C69.7482 56.4285 69.8653 50.6135 69.5347 48.8748L75.2022 48.6102Z" fill="#002030"/>
<path d="M77.0517 33.4128C76.1165 31.6622 72.4213 33.377 71.762 34.6065C71.66 34.8054 71.4918 35.1595 71.6052 35.3744C71.983 36.0906 73.1581 34.8173 73.398 34.6602C74.2122 34.127 75.9918 33.2358 76.9874 33.57C77.0706 33.5939 77.0838 33.4705 77.0517 33.4128Z" fill="#002030"/>
</svg>
