<svg width="100" height="100" viewBox="0 0 100 100" fill="none" xmlns="http://www.w3.org/2000/svg">
<rect x="0.5" y="0.5" width="99" height="99" rx="7.5" stroke="#D2D2D2"/>
<path d="M69.8443 33.5479C69.8443 33.5479 74.1138 34.4391 76.0785 40.4928C78.0433 46.5465 80.1497 69.3628 65.9072 74.4716L69.8443 33.5479Z" fill="#CC5440"/>
<path d="M69.6865 26.6792C70.6311 27.5128 70.7501 29.725 70.6311 30.8569C70.5045 32.0347 70.0322 32.6255 69.3181 33.5207C68.9592 33.9703 68.9157 33.9087 68.7381 34.4438C68.6607 34.6746 68.9913 34.8417 69.1613 34.782C71.1638 34.0658 71.7457 31.219 71.383 29.2973C71.2035 28.3483 70.7803 26.7111 69.7337 26.4524C69.626 26.4266 69.6374 26.6315 69.6903 26.6792H69.6865Z" fill="#CC5440"/>
<path d="M74.662 33.6338C74.067 31.7638 70.2017 32.6988 69.3497 33.7472C69.2175 33.9103 68.9908 34.2286 69.0626 34.4574C69.3006 35.2233 70.6589 34.2246 70.9177 34.1192C71.7981 33.7631 73.6702 33.2518 74.5714 33.7691C74.6488 33.8128 74.6809 33.6895 74.662 33.6338Z" fill="#CC5440"/>
<path d="M69.844 33.548C69.844 33.548 70.0575 23.4598 56.3232 20.3285C41.4479 16.9466 30.2527 21.6833 23.1211 31.3517C17.3742 39.1442 15.7533 57.1382 25.611 57.6913C35.4687 58.2443 69.844 33.548 69.844 33.548ZM65.907 74.4718C69.1185 71.9651 74.2495 68.7881 74.2098 49.2065H67.8962L65.907 74.4718Z" fill="#CC5440"/>
<path d="M47.6811 79.7057C54.0079 79.7057 61.3889 78.9099 65.9077 74.4716C70.4266 70.0333 70.8782 58.6102 68.1748 47.3483C65.4714 36.0863 55.0696 33.5479 47.6886 33.5479C40.3076 33.5479 29.9078 36.0863 27.1968 47.3483C24.4859 58.6102 24.9298 70.0273 29.4638 74.4716C33.9978 78.9159 41.3561 79.7057 47.6811 79.7057Z" fill="#FFC8AC"/>
<path d="M26.4522 67.4896C26.4536 66.5433 26.7215 65.6186 27.2219 64.8325C27.7222 64.0465 28.4326 63.4342 29.2633 63.0731C30.094 62.7121 31.0077 62.6184 31.8889 62.804C32.7701 62.9896 33.5793 63.4461 34.2142 64.1158C34.8491 64.7855 35.2813 65.6384 35.456 66.5667C35.6308 67.4949 35.5404 68.4569 35.1961 69.3311C34.8519 70.2052 34.2693 70.9523 33.522 71.4779C32.7747 72.0035 31.8962 72.284 30.9975 72.284C30.4 72.284 29.8083 72.16 29.2563 71.9189C28.7044 71.6779 28.203 71.3246 27.7808 70.8793C27.3586 70.434 27.024 69.9054 26.796 69.3237C26.568 68.7421 26.4512 68.1188 26.4522 67.4896ZM58.808 67.4896C58.808 66.5424 59.0748 65.6165 59.5748 64.8291C60.0747 64.0417 60.7853 63.4283 61.6165 63.0663C62.4477 62.7044 63.3622 62.6103 64.2442 62.796C65.1262 62.9816 65.9361 63.4387 66.5713 64.1093C67.2066 64.7799 67.6386 65.6339 67.8127 66.5631C67.9868 67.4924 67.8951 68.4552 67.5494 69.3296C67.2036 70.204 66.6193 70.9507 65.8703 71.4752C65.1213 71.9997 64.2414 72.2784 63.342 72.2761C62.1383 72.2734 60.9848 71.7679 60.1347 70.8705C59.2846 69.9731 58.8074 68.7571 58.808 67.4896Z" fill="#FCA39A"/>
<path d="M61.5401 37.3662C61.5401 37.3662 62.4242 46.1573 64.6194 49.1036C66.8146 52.0499 54.69 51.4392 51.9714 41.345C51.9714 41.345 53.7737 49.4239 52.0187 50.6494C50.2636 51.8748 37.2605 52.0738 32.9551 38.0148L61.5401 37.3662Z" fill="#CC5440"/>
<path d="M46.595 64.933C44.942 64.8733 43.4496 65.9774 43.459 66.4947C43.4817 67.7042 49.3362 67.9509 49.2739 66.4947C49.2399 65.683 48.0138 64.9827 46.595 64.933Z" fill="#FCA39A"/>
<path d="M43.3087 66.8207C44.3459 66.0011 45.1015 65.1854 46.5203 65.1815C47.8238 65.1815 48.5172 65.9136 49.2313 66.9341C49.3541 67.1092 49.6696 67.1171 49.6375 66.8406C49.2766 63.7491 44.0077 64.0356 43.252 66.7312C43.2407 66.767 43.2615 66.8585 43.3125 66.8207H43.3087Z" fill="#9E5147"/>
<path d="M58.5812 51.4766C56.3954 51.4766 53.1781 52.8532 52.2487 56.1616C51.1152 60.1841 53.4634 64.0913 58.5812 63.9003C64.073 63.7014 66.015 60.2597 65.4275 57.0707C64.7965 53.653 62.4124 51.4905 58.5812 51.4766Z" fill="white"/>
<path d="M52.161 56.8701C53.1811 53.6254 56.695 51.6221 59.8329 52.2945C61.1005 52.5631 62.4683 53.2992 63.3089 54.3516C64.2535 55.5273 64.3801 57.0571 65.2605 58.2309C65.4003 58.4159 65.7649 58.5273 65.8933 58.2647C66.7132 56.5797 65.4343 54.3814 64.2913 53.1679C63.1011 51.8986 61.3159 51.0531 59.6421 50.8482C57.8788 50.634 56.0981 51.0464 54.5829 52.02C52.8278 53.1977 52.3272 54.7355 52.0193 56.8244C52.0023 56.9417 52.1175 57.0134 52.161 56.8781V56.8701Z" fill="#002030"/>
<path d="M52.6172 58.7167C52.6172 57.69 52.9063 56.6865 53.448 55.8329C53.9897 54.9793 54.7595 54.314 55.6603 53.9213C56.561 53.5285 57.5521 53.4258 58.5083 53.6262C59.4645 53.8267 60.3427 54.3212 61.0319 55.0473C61.7212 55.7734 62.1904 56.6984 62.3804 57.7053C62.5704 58.7123 62.4725 59.7559 62.0992 60.7043C61.7258 61.6527 61.0938 62.4631 60.283 63.0332C59.4722 63.6033 58.5191 63.9074 57.5441 63.907C56.897 63.907 56.2561 63.7727 55.6582 63.5119C55.0604 63.251 54.5171 62.8686 54.0596 62.3867C53.6021 61.9047 53.2392 61.3325 52.9917 60.7028C52.7442 60.0731 52.6169 59.3982 52.6172 58.7167Z" fill="#19313A"/>
<path d="M53.7168 58.2471C53.7164 57.9188 53.8085 57.5979 53.9814 57.3248C54.1543 57.0517 54.4003 56.8387 54.6881 56.7128C54.976 56.5869 55.2928 56.5538 55.5986 56.6176C55.9043 56.6814 56.1853 56.8392 56.4058 57.0712C56.6263 57.3031 56.7766 57.5988 56.8375 57.9207C56.8985 58.2426 56.8674 58.5763 56.7482 58.8796C56.629 59.1828 56.4271 59.4421 56.1679 59.6245C55.9088 59.8069 55.6041 59.9042 55.2924 59.9042C54.8748 59.9042 54.4744 59.7297 54.1789 59.419C53.8835 59.1083 53.7173 58.6868 53.7168 58.2471Z" fill="white"/>
<path d="M35.9286 51.4766C38.1144 51.4766 41.3316 52.8532 42.2611 56.1616C43.3946 60.1841 41.0463 64.0913 35.9286 63.9003C30.4368 63.7014 28.4947 60.2597 29.0822 57.0707C29.7132 53.653 32.0974 51.4905 35.9286 51.4766Z" fill="white"/>
<path d="M42.4878 56.7664C42.1572 54.6059 41.3147 52.9189 39.4501 51.7929C38.5685 51.2776 37.5987 50.9516 36.5966 50.8337C35.5946 50.7159 34.5803 50.8087 33.6125 51.1066C32.2674 51.5303 30.8902 52.3221 29.9645 53.4521C29.0389 54.5821 27.7391 56.651 28.6554 58.1112C28.8046 58.348 29.173 58.5648 29.3638 58.2505C29.957 57.2717 30.1025 56.1059 30.6862 55.1093C31.3361 53.9992 32.2448 53.2671 33.3688 52.7379C36.8203 51.1146 41.173 52.9985 42.3462 56.8719C42.3934 57.031 42.5049 56.8719 42.4897 56.7684L42.4878 56.7664Z" fill="#002030"/>
<path d="M41.8889 58.7157C41.8889 57.6891 41.5998 56.6855 41.0581 55.8319C40.5165 54.9783 39.7466 54.3131 38.8458 53.9203C37.9451 53.5275 36.954 53.4248 35.9978 53.6253C35.0417 53.8257 34.1634 54.3202 33.4742 55.0463C32.785 55.7724 32.3157 56.6974 32.1257 57.7043C31.9358 58.7113 32.0336 59.7549 32.407 60.7033C32.7803 61.6517 33.4124 62.4622 34.2232 63.0322C35.0339 63.6023 35.9871 63.9064 36.962 63.906C37.6092 63.906 38.25 63.7717 38.8479 63.5109C39.4458 63.25 39.989 62.8677 40.4465 62.3857C40.9041 61.9037 41.2669 61.3315 41.5144 60.7018C41.7619 60.0721 41.8892 59.3972 41.8889 58.7157Z" fill="#19313A"/>
<path d="M34.7484 59.9052C35.6186 59.9052 36.324 59.1624 36.324 58.2461C36.324 57.3297 35.6186 56.5869 34.7484 56.5869C33.8783 56.5869 33.1729 57.3297 33.1729 58.2461C33.1729 59.1624 33.8783 59.9052 34.7484 59.9052Z" fill="white"/>
<path d="M63.0833 49.0421C63.1241 48.9363 63.1353 48.8203 63.1154 48.7079C62.9945 48.127 62.6865 47.6973 62.3106 47.2616C61.7933 46.6845 61.1911 46.1989 60.5272 45.8233C59.2478 45.0637 57.7909 44.6996 56.3238 44.7729C56.047 44.7727 55.7736 44.8365 55.5228 44.9599C55.3648 45.0504 55.2304 45.1805 55.1316 45.3387C55.0327 45.497 54.9724 45.6784 54.9561 45.8671C54.9088 46.5614 55.4359 46.8836 56.0159 46.9771L57.3383 47.186C57.6595 47.2378 57.9806 47.2895 58.298 47.3571C59.3673 47.5842 60.3937 47.9956 61.3358 48.5746C61.7136 48.8133 62.1085 49.0839 62.5486 49.1814C62.7054 49.2072 63.0077 49.249 63.0833 49.0421Z" fill="#A03717"/>
<path d="M31.3169 48.5338C31.2863 48.4241 31.2863 48.3074 31.3169 48.1976C31.4812 47.6267 31.8194 47.2248 32.2256 46.823C32.7858 46.2891 33.4236 45.8532 34.1148 45.5318C35.4424 44.8825 36.9166 44.6392 38.3692 44.8296C38.6451 44.8514 38.9129 44.9377 39.1532 45.0822C39.3027 45.1858 39.4258 45.3265 39.5114 45.492C39.5971 45.6575 39.6428 45.8427 39.6444 46.0312C39.6444 46.7275 39.0908 47.006 38.5109 47.0517L37.1884 47.1532C36.8635 47.1771 36.5404 47.2029 36.2174 47.2447C35.1351 47.3851 34.082 47.7117 33.1003 48.2115C32.696 48.4105 32.2936 48.6572 31.8459 48.7188C31.6796 48.7387 31.3755 48.7467 31.3169 48.5338Z" fill="#A03717"/>
<path d="M69.377 53.8546C70.1081 51.4097 73.3026 47.972 76.996 49.466C80.6893 50.9601 81.5394 56.7949 79.4802 61.1318C77.421 65.4687 71.8026 67.0562 69.7132 63.907L69.377 53.8546Z" fill="#FFC8AC"/>
<path d="M69.17 56.9112C69.1246 57.0564 69.3117 57.3667 69.4741 57.2533C70.1694 56.7719 70.6662 56.0697 71.3935 55.636C72.1649 55.1905 73.0506 55.0143 73.9231 55.1327C74.3312 55.7295 74.6958 56.183 74.6089 57.0942C74.5363 57.9258 74.2171 58.7123 73.6964 59.3422C73.2884 59.7998 72.6706 59.939 72.17 60.2454C72.1322 60.2692 72.0925 60.3966 72.1568 60.4125C74.5315 61.0232 76.124 57.5438 75.3929 55.5305C76.7323 56.1273 77.8394 57.3051 77.7695 58.9582C77.7695 59.0358 77.8432 59.0179 77.864 58.9582C79.8211 53.7819 70.7115 51.9596 69.17 56.9112Z" fill="#9E5147"/>
<path d="M68.6392 49.4653C68.6392 49.4653 64.1411 45.5303 61.5397 37.3658L54.6499 40.3857C49.6268 42.5876 43.9853 42.634 38.9301 40.515L32.9547 38.0084C31.7475 39.5283 26.9396 41.4719 25.6115 57.6914C25.6115 57.6914 22.211 43.6981 28.3413 34.4693C34.4717 25.2405 45.3287 23.6908 57.5479 26.0064C65.7582 27.5621 74.6751 34.3618 74.2104 49.2067C73.3621 55.6463 70.1921 59.3028 69.5195 58.0933C68.847 56.8837 68.966 51.1742 68.6392 49.4653L74.2104 49.2067L68.6392 49.4653Z" fill="#CC5440"/>
<path d="M42.1475 72.6199C45.9523 75.0072 52.2489 73.9727 55.2111 70.5828C55.5266 70.2207 54.8332 69.8725 54.5612 70.1948C51.582 73.6166 46.0599 73.9488 42.1928 72.2936C41.9793 72.2021 42.0039 72.5364 42.1475 72.6199Z" fill="#9E5147"/>
<path d="M54.507 69.0372C54.1292 69.435 54.5164 70.1512 54.8206 70.4497C55.1701 70.7918 55.7784 71.1161 56.2658 70.9371C56.4302 70.8754 56.6096 70.6645 56.4264 70.4954C56.2847 70.3621 55.9352 70.4795 55.7482 70.4377C55.0681 70.2865 54.8678 69.6937 54.6581 69.0849C54.6317 69.0133 54.5599 68.9815 54.507 69.0372Z" fill="#9E5147"/>
</svg>
