<svg width="100" height="100" viewBox="0 0 100 100" fill="none" xmlns="http://www.w3.org/2000/svg">
<rect x="0.5" y="0.5" width="99" height="99" rx="7.5" stroke="#D2D2D2"/>
<g clip-path="url(#clip0)">
<path d="M66.75 41.9933C66.5559 41.616 66.3295 41.2494 66.1139 40.9152V40.8505C65.8875 40.4839 65.6503 40.1389 65.3915 39.7724C65.1328 39.4058 65.0358 39.3088 64.8525 39.0716C64.6692 38.8344 64.4967 38.6296 64.3026 38.4139C63.9576 38.0258 63.6126 37.6593 63.2245 37.3358L62.5345 36.6889C62.2973 36.4841 62.0494 36.2685 61.8014 36.0744L61.424 35.7833C61.2999 35.6795 61.1704 35.5823 61.0359 35.4922C60.7879 35.2982 60.5292 35.1257 60.2704 34.9532C60.0117 34.7807 59.4834 34.4572 59.0953 34.2308C58.9228 34.1446 58.7503 34.0583 58.5886 33.9613L57.8447 33.5947C57.5212 33.4438 57.187 33.2929 56.8528 33.1635C56.8528 33.1635 56.7989 33.1635 56.7773 33.1635C56.3764 32.9866 55.9661 32.8319 55.5483 32.6999C51.6337 31.4347 47.4201 31.4347 43.5056 32.6999C43.077 32.8355 42.6559 32.9938 42.2442 33.1743C38.4123 34.6726 35.1494 37.3395 32.9184 40.7966L32.25 42.0041C31.9812 42.4933 31.74 42.9972 31.5276 43.5135L31.3228 44.0094C31.2258 44.2358 31.1503 44.473 31.064 44.7102C30.9898 44.8936 30.925 45.0807 30.87 45.2708C30.7406 45.6482 30.622 46.0363 30.525 46.4352C30.525 46.6293 30.4279 46.8341 30.3848 47.039C30.2668 47.447 30.1696 47.8608 30.0937 48.2788C30.0616 48.4389 30.04 48.601 30.029 48.764C29.9115 49.5925 29.8538 50.4284 29.8565 51.2652C29.8573 52.587 29.9909 53.9053 30.2554 55.2004C30.2605 55.2542 30.2605 55.3083 30.2554 55.3621C31.1137 59.3701 33.2063 63.0086 36.239 65.766C36.3126 65.821 36.3811 65.8823 36.4439 65.9493C36.7458 66.208 37.0476 66.4668 37.3603 66.7147L37.4465 66.7794C40.6953 69.2836 44.6461 70.7086 48.7453 70.8547C48.8059 70.8438 48.868 70.8438 48.9286 70.8547H50.0606C50.1212 70.8441 50.1833 70.8441 50.2439 70.8547C54.3178 70.6966 58.241 69.2721 61.4672 66.7794C61.5135 66.7246 61.568 66.6773 61.6289 66.6393C61.9415 66.3913 62.2434 66.1433 62.5345 65.8738C65.6453 63.1115 67.7943 59.4293 68.669 55.3621C68.664 55.3083 68.664 55.2542 68.669 55.2004C68.9299 53.905 69.06 52.5866 69.0572 51.2652C69.0657 48.0452 68.2728 44.8736 66.75 42.0364C66.747 42.0296 66.7455 42.0223 66.7455 42.0149C66.7455 42.0075 66.747 42.0001 66.75 41.9933ZM49.5 61.3996C47.4935 61.3975 45.5326 60.8004 43.8655 59.6838C42.1983 58.5673 40.8996 56.9814 40.1337 55.1268C39.3678 53.2722 39.1691 51.2322 39.5627 49.2646C39.9562 47.2971 40.9243 45.4904 42.3447 44.0731C43.765 42.6558 45.5737 41.6915 47.5421 41.3021C49.5105 40.9127 51.5501 41.1158 53.4031 41.8857C55.2561 42.6555 56.8391 43.9575 57.9521 45.627C59.0651 47.2966 59.658 49.2587 59.6559 51.2652C59.6545 52.5975 59.3907 53.9164 58.8795 55.1468C58.3684 56.3771 57.6199 57.4947 56.6768 58.4358C55.7338 59.3768 54.6146 60.1229 53.3832 60.6315C52.1518 61.14 50.8323 61.401 49.5 61.3996Z" fill="#010101"/>
<path d="M49.4998 43.2012C47.9079 43.2033 46.3523 43.6772 45.0296 44.5629C43.7068 45.4487 42.6762 46.7066 42.068 48.1778C41.4598 49.6489 41.3012 51.2673 41.6123 52.8286C41.9234 54.3898 42.6902 55.8239 43.8159 56.9495C44.9415 58.0752 46.3756 58.842 47.9368 59.1531C49.498 59.4642 51.1165 59.3056 52.5876 58.6974C54.0588 58.0892 55.3167 57.0586 56.2025 55.7358C57.0882 54.4131 57.5621 52.8575 57.5642 51.2656C57.5642 49.1267 56.7146 47.0755 55.2022 45.5632C53.6899 44.0508 51.6386 43.2012 49.4998 43.2012Z" fill="#010101"/>
<path d="M83.8597 45.1959C83.4372 42.8539 82.1622 40.7513 80.2808 39.2939C78.3993 37.8365 76.0448 37.1277 73.6714 37.304C75.0205 35.3382 75.5893 32.9405 75.2671 30.5782C74.9449 28.2159 73.7548 26.0581 71.9286 24.5253C70.1025 22.9925 67.7711 22.1945 65.3886 22.2867C63.0062 22.3789 60.7435 23.3548 59.0413 25.0242C58.8025 22.6582 57.6936 20.4652 55.9297 18.8704C54.1658 17.2756 51.8725 16.3926 49.4945 16.3926C47.1165 16.3926 44.8232 17.2756 43.0593 18.8704C41.2954 20.4652 40.1865 22.6582 39.9477 25.0242C38.2455 23.3548 35.9827 22.3789 33.6003 22.2867C31.2179 22.1945 28.8865 22.9925 27.0603 24.5253C25.2342 26.0581 24.0441 28.2159 23.7219 30.5782C23.3997 32.9405 23.9685 35.3382 25.3175 37.304C22.9463 37.1259 20.5933 37.8345 18.7148 39.2927C16.8364 40.7508 15.5663 42.8545 15.1508 45.1959C14.7328 47.54 15.2023 49.9558 16.4679 51.9727C17.7334 53.9896 19.7044 55.4632 21.9969 56.1065C20.1899 57.3939 18.8925 59.2751 18.3313 61.4217C17.9462 62.8445 17.8948 64.3371 18.1812 65.7831C18.4676 67.229 19.084 68.5893 19.9824 69.758C20.8807 70.9266 22.0369 71.872 23.3606 72.5205C24.6843 73.169 26.1399 73.5031 27.6139 73.4967C28.9754 73.5022 30.3219 73.2116 31.5599 72.645C30.9902 74.8038 31.2002 77.0944 32.1529 79.1137C33.22 81.4194 35.1589 83.2071 37.5435 84.0839C38.5988 84.4622 39.7107 84.659 40.8318 84.6661C42.2358 84.6582 43.6217 84.3494 44.8963 83.7604C46.9176 82.8212 48.5464 81.2039 49.4999 79.1892C50.4705 81.1839 52.0952 82.7859 54.1035 83.7281C55.368 84.3241 56.7485 84.6334 58.1464 84.6337C59.2676 84.6277 60.3796 84.4309 61.4347 84.0515C63.8181 83.1727 65.7563 81.3857 66.8253 79.0814C67.778 77.0621 67.988 74.7715 67.4183 72.6126C69.5833 73.5988 72.0375 73.7456 74.3046 73.0244C76.5717 72.3032 78.49 70.7656 79.6874 68.7098C80.8803 66.6487 81.265 64.2179 80.767 61.8891C80.269 59.5603 78.9237 57.4995 76.9921 56.1065C79.2833 55.459 81.2533 53.9855 82.5217 51.9704C83.79 49.9554 84.2667 47.5419 83.8597 45.1959ZM70.7282 55.7292C70.7282 55.9664 70.6203 56.2036 70.5557 56.4515C69.5734 60.4299 67.4837 64.0485 64.5289 66.8878L63.9683 67.4161C63.6125 67.7287 63.2568 68.0306 62.8902 68.3109C62.6983 68.4773 62.4967 68.6321 62.2864 68.7745C58.9841 71.2025 55.0562 72.6352 50.9661 72.9037C50.7182 72.9037 50.4702 72.9037 50.2114 72.9037C49.9527 72.9037 49.7478 72.9037 49.4999 72.9037C49.2519 72.9037 49.0363 72.9037 48.7883 72.9037H48.0444C43.9543 72.6462 40.0212 71.233 36.7025 68.8284C36.5085 68.6775 36.3144 68.5373 36.1096 68.3648C35.7322 68.0845 35.3764 67.7826 35.0314 67.47L34.4924 66.9525C31.5267 64.1157 29.4322 60.4914 28.4549 56.5055C28.3902 56.2575 28.3363 56.0095 28.2824 55.7723C28.1854 55.3087 28.1099 54.8451 28.0452 54.3708C28.0452 54.1228 27.9697 53.864 27.9482 53.6161C27.8615 52.8537 27.8183 52.087 27.8188 51.3197C27.8145 48.0106 28.5746 44.7453 30.0397 41.7783C30.1583 41.5411 30.2661 41.3039 30.3955 41.0883C30.6111 40.6678 30.8483 40.2689 31.0963 39.8808C31.2225 39.6564 31.3629 39.4403 31.5168 39.2339C33.796 35.8399 36.9824 33.154 40.7132 31.4822L41.4355 31.1803C41.8668 31.0078 42.298 30.8461 42.7508 30.7059L43.4732 30.4795C47.4144 29.344 51.5961 29.344 55.5374 30.4795L56.2597 30.7059C56.7018 30.8461 57.1438 31.0078 57.575 31.1803L58.2866 31.4822C62.0238 33.1531 65.2174 35.8387 67.5046 39.2339C67.6555 39.4387 67.7849 39.6544 67.925 39.87C68.1622 40.2581 68.3994 40.6678 68.615 41.0883C68.7336 41.3039 68.8522 41.5195 68.9708 41.7567C70.4366 44.7312 71.1966 48.0036 71.1918 51.3197C71.1918 52.1067 71.1917 52.8722 71.0732 53.6376C71.0732 53.8748 71.0732 54.1336 70.9761 54.3708C70.9007 54.8128 70.8144 55.2548 70.7282 55.7292Z" fill="#010101"/>
</g>
<defs>
<clipPath id="clip0">
<rect width="69" height="69" fill="white" transform="translate(15 16)"/>
</clipPath>
</defs>
</svg>
