<svg width="100" height="100" viewBox="0 0 100 100" fill="none" xmlns="http://www.w3.org/2000/svg">
<rect x="0.5" y="0.5" width="99" height="99" rx="7.5" stroke="#D2D2D2"/>
<path d="M67.4905 75.1164C66.6805 76.7964 65.7507 78.3114 64.7007 79.6614L61.9999 82.6041L58.2499 77.9996L51.9999 79.8746L59.8107 66.9414C59.8107 66.5963 59.6906 66.2663 59.4658 65.9964L54.4256 59.8463C53.9008 59.2164 60.4556 58.7245 59.8107 59.2496C59.1658 59.7746 63.9747 64.2447 64.4999 64.8746L56.8107 67.4814L61.9999 61.7496C69.064 57.3547 56.8858 72.8065 57.0356 73.0464L62.6305 82.0163C60.3055 84.2813 57.6208 85.7813 54.8006 86.3215C54.1557 86.4414 53.4958 86.5013 52.8209 86.5013C49.1456 86.5013 45.0356 84.6714 41.1658 81.6864V71.1864L44.3156 69.4315C44.8708 69.1164 45.1707 68.4863 45.0506 67.8564L43.0855 57.4015C42.9357 56.5914 42.1707 56.0514 41.3456 56.2164C40.5206 56.3664 46.8501 52.8148 46.9999 53.6246L46.3749 78.6246L48.8749 80.4996C48.3951 80.7695 42.091 81.8196 42.091 82.3746L38.1658 79.0914C32.5108 73.7213 27.8156 66.0865 26.4207 58.7063C25.1305 51.9114 26.5709 46.4964 30.6959 42.6113C33.8006 39.6714 38.3006 37.6914 44.4507 36.5214C45.7555 36.2813 47.0907 36.1464 48.4256 36.1464L48.9808 36.1614C49.0855 36.1614 49.2056 36.1764 49.3107 36.2063L58.6106 38.5914C58.7308 38.6214 58.8355 38.6665 58.9406 38.7264C64.7608 41.8313 68.7206 47.5163 70.0855 54.7614C71.3907 61.6013 70.4459 69.0264 67.4905 75.1164ZM69.1557 21.7765V29.4563C69.1557 30.2813 68.4958 30.9563 67.6557 30.9563C64.2356 30.9563 61.2807 32.9814 59.9459 35.8913C59.7507 35.8014 59.5555 35.7263 59.3606 35.6815L50.1358 33.3264C49.7758 33.2213 49.3708 33.1614 49.0709 33.1614L48.4256 33.1464C50.9008 25.6764 57.9657 20.2764 66.2608 20.2764H67.6557C68.4958 20.2765 69.1557 20.9364 69.1557 21.7765ZM48.5907 16.0614V26.2915C47.3156 28.0614 46.2957 30.0415 45.5757 32.2014L45.1857 33.3714C44.7507 33.4315 44.3306 33.5064 43.8956 33.5813C40.0408 34.3164 36.7555 35.3513 34.0108 36.7314V36.3864C34.0108 33.3114 35.2555 30.4914 37.3708 28.6764V16.0013C37.3708 15.5963 37.5206 15.2213 37.8055 14.9364C38.0907 14.6515 38.4207 14.4713 38.8708 14.5013L47.1058 14.5614C47.9305 14.5614 48.5907 15.2363 48.5907 16.0614Z" fill="#010101"/>
</svg>
