<svg width="100" height="100" viewBox="0 0 100 100" fill="none" xmlns="http://www.w3.org/2000/svg">
<rect x="0.5" y="0.5" width="99" height="99" rx="7.5" fill="black" stroke="#D2D2D2"/>
<g clip-path="url(#clip0)">
<path d="M84.8125 51.8447C84.8125 61.0361 81.1611 69.851 74.6618 76.3503C68.1625 82.8496 59.3477 86.501 50.1562 86.501C40.9648 86.501 32.15 82.8496 25.6507 76.3503C19.1514 69.851 15.5 61.0361 15.5 51.8447C15.5 42.6533 19.1514 33.8384 25.6507 27.3391C32.15 20.8398 40.9648 17.1885 50.1562 17.1885C59.3477 17.1885 68.1625 20.8398 74.6618 27.3391C81.1611 33.8384 84.8125 42.6533 84.8125 51.8447Z" stroke="#73FBFD"/>
<path fill-rule="evenodd" clip-rule="evenodd" d="M71.4463 23.9297L22.2275 73.1484C24.1347 75.6413 26.367 77.8675 28.8651 79.7677L78.093 30.549C76.1831 28.0555 73.9476 25.8293 71.4463 23.9297Z" fill="#56F2F4" fill-opacity="0.2"/>
</g>
<defs>
<clipPath id="clip0">
<rect width="75" height="75" fill="white" transform="translate(15 12)"/>
</clipPath>
</defs>
</svg>
