<svg width="100" height="100" viewBox="0 0 100 100" fill="none" xmlns="http://www.w3.org/2000/svg">
<rect x="0.5" y="0.5" width="99" height="99" rx="7.5" stroke="#D2D2D2"/>
<path d="M17.3675 47.4333L30.5675 59.5333L26.9008 76.4C26.5341 78.6 27.2675 80.8 29.1008 81.9C29.8341 82.6333 30.9341 83 32.0341 83C32.7675 83 33.5008 83 34.2341 82.6333C34.2341 82.6333 34.6008 82.6333 34.6008 82.2667L49.6341 73.8333L64.6675 82.2667C64.6675 82.2667 65.0341 82.2667 65.0341 82.6333C66.8675 83.3667 69.0675 83.3667 70.5341 82.2667C72.3675 81.1667 73.1008 78.9667 72.7341 76.7667L69.0675 59.9C70.5341 58.8 72.7341 56.6 74.9341 54.4L81.9008 48.1667L82.2675 47.8C83.7341 46.3333 84.1008 44.1333 83.3675 42.3C82.6341 40.4667 81.1675 39 78.9675 38.6333H78.6008L61.3675 36.8L54.4008 21.0333C54.4008 21.0333 54.4008 20.6667 54.0341 20.6667C53.6675 18.1 51.8341 17 50.0008 17C48.1675 17 46.3341 18.1 45.2341 19.9333C45.2341 19.9333 45.2341 20.3 44.8675 20.3L37.9008 36.0667L20.6675 37.9H20.3008C18.4675 38.2667 16.6341 39.7333 15.9008 41.5667C15.5341 43.7667 15.9008 45.9667 17.3675 47.4333Z" fill="black"/>
</svg>
