<svg width="95" height="91" viewBox="0 0 95 91" fill="none" xmlns="http://www.w3.org/2000/svg">
<path d="M80.1562 33.8021C80.1658 28.7421 78.8692 23.7569 76.3798 19.2821C73.8904 14.8073 70.2838 10.9791 65.8753 8.13192C61.4668 5.28474 56.3905 3.50528 51.09 2.94903C45.7894 2.39278 40.426 3.07667 35.4683 4.94094C30.5105 6.8052 26.1095 9.79311 22.6496 13.6436C19.1897 17.494 16.7763 22.0899 15.6203 27.0295C14.4642 31.9691 14.6008 37.1022 16.0179 41.9802C17.4351 46.8582 20.0898 51.3327 23.7499 55.0127V84.5048C23.7503 84.9697 23.872 85.4273 24.1041 85.8368C24.3362 86.2462 24.6716 86.5948 25.0802 86.8514C25.4888 87.108 25.958 87.2647 26.4459 87.3074C26.9338 87.3501 27.4253 87.2776 27.8765 87.0963L47.5 79.1247L67.1234 87.0963C67.4895 87.2442 67.8832 87.3209 68.2812 87.3216C68.8632 87.3173 69.431 87.1508 69.914 86.8427C70.3224 86.5876 70.658 86.2406 70.8911 85.8328C71.1241 85.4249 71.2474 84.9687 71.25 84.5048V55.0127C76.956 49.2759 80.1412 41.6902 80.1562 33.8021ZM47.5 8.45069C52.7844 8.45069 57.9502 9.93752 62.3441 12.7232C66.738 15.5088 70.1626 19.4682 72.1849 24.1005C74.2071 28.7329 74.7363 33.8302 73.7053 38.7479C72.6744 43.6655 70.1296 48.1827 66.393 51.7282C62.6563 55.2736 57.8955 57.6881 52.7125 58.6663C47.5296 59.6445 42.1573 59.1424 37.2751 57.2237C32.3929 55.3049 28.22 52.0555 25.2841 47.8865C22.3482 43.7175 20.7812 38.8161 20.7812 33.8021C20.7812 27.0785 23.5962 20.6302 28.6069 15.8759C33.6177 11.1216 40.4137 8.45069 47.5 8.45069ZM48.6578 73.4629C48.2915 73.3157 47.8977 73.2398 47.5 73.2398C47.1022 73.2398 46.7084 73.3157 46.3421 73.4629L29.6874 80.2232V59.7449C34.9879 63.0179 41.1759 64.7602 47.5 64.7602C53.824 64.7602 60.012 63.0179 65.3125 59.7449V80.2232L48.6578 73.4629Z" fill="#8C2DF5"/>
<path d="M30.3414 37.4076L30.9351 37.8301C31.4256 38.1541 31.792 38.6203 31.9793 39.1587C32.1667 39.6971 32.1649 40.2786 31.9742 40.8159L31.7367 41.492C31.184 43.1601 31.2 44.9511 31.7824 46.61C32.3647 48.269 33.4838 49.7114 34.9803 50.7318C36.4768 51.7523 38.2745 52.2989 40.1174 52.2937C41.9602 52.2885 43.7544 51.7318 45.2445 50.703L45.8383 50.3086C46.3172 49.9659 46.9008 49.7804 47.5008 49.7804C48.1007 49.7804 48.6843 49.9659 49.1633 50.3086L49.757 50.703C51.2693 51.6551 53.0522 52.1461 54.8667 52.1103C56.6813 52.0744 58.441 51.5134 59.9103 50.5023C61.3795 49.4913 62.4881 48.0784 63.0876 46.453C63.6872 44.8276 63.749 43.0672 63.2648 41.4075L63.0273 40.7314C62.8366 40.1941 62.8349 39.6125 63.0222 39.0742C63.2096 38.5358 63.576 38.0696 64.0664 37.7456L64.6601 37.3231C66.0482 36.2351 67.0561 34.7734 67.551 33.1309C68.0459 31.4884 68.0045 29.7421 67.4322 28.1224C66.86 26.5026 65.7838 25.0855 64.3455 24.0578C62.9073 23.0301 61.1745 22.4402 59.3758 22.3658H58.6336C58.0439 22.343 57.4748 22.1539 56.9989 21.8228C56.523 21.4917 56.1619 21.0334 55.9617 20.5067L55.843 19.718C55.2075 18.1054 54.0681 16.7155 52.5772 15.7342C51.0864 14.7529 49.3152 14.2271 47.5008 14.2271C45.6863 14.2271 43.9151 14.7529 42.4243 15.7342C40.9334 16.7155 39.794 18.1054 39.1586 19.718L38.9211 20.394C38.7209 20.9208 38.3598 21.379 37.8839 21.7101C37.408 22.0413 36.8389 22.2303 36.2492 22.2531H35.6258C33.8158 22.3297 32.0734 22.9282 30.6313 23.9688C29.1891 25.0094 28.1157 26.4426 27.5544 28.0771C26.9931 29.7116 26.9705 31.4697 27.4897 33.1167C28.0089 34.7637 29.0451 36.2213 30.4601 37.2949L30.3414 37.4076ZM32.8055 29.8585C32.9804 29.2892 33.3559 28.7941 33.8691 28.4558C34.3824 28.1174 35.0024 27.9564 35.6258 27.9994H36.368C38.2004 27.9887 39.9847 27.442 41.4776 26.4338C42.9705 25.4256 44.0994 24.005 44.7101 22.3658L44.918 21.7179C45.1541 21.2261 45.5344 20.8092 46.0134 20.5168C46.4924 20.2244 47.05 20.069 47.6195 20.069C48.1891 20.069 48.7466 20.2244 49.2257 20.5168C49.7047 20.8092 50.0849 21.2261 50.3211 21.7179L50.5289 22.3658C51.1148 24.0313 52.2329 25.4824 53.728 26.5172C55.223 27.5521 57.0206 28.1194 58.8711 28.1403H59.3758C59.9729 28.1381 60.5553 28.3158 61.0392 28.6479C61.523 28.9799 61.8833 29.449 62.0682 29.9878C62.253 30.5265 62.2529 31.107 62.0678 31.6457C61.8828 32.1843 61.5223 32.6534 61.0383 32.9852L60.4445 33.4077C58.9408 34.4343 57.8218 35.8895 57.2505 37.5615C56.6791 39.2334 56.6852 41.0348 57.268 42.7032L57.5055 43.3792C57.6111 43.9058 57.5561 44.4501 57.3471 44.948C57.1381 45.446 56.7837 45.8771 56.3254 46.1906C55.8672 46.5041 55.3242 46.6871 54.7602 46.718C54.1962 46.7489 53.6346 46.6264 53.1414 46.3651L52.5476 45.9707C51.0393 44.9517 49.2337 44.4041 47.382 44.4041C45.5304 44.4041 43.7248 44.9517 42.2164 45.9707L41.6226 46.3651C41.1294 46.6264 40.5678 46.7489 40.0038 46.718C39.4398 46.6871 38.8968 46.5041 38.4386 46.1906C37.9804 45.8771 37.6259 45.446 37.4169 44.948C37.2079 44.4501 37.153 43.9058 37.2586 43.3792L37.4961 42.7032C38.0788 41.0348 38.0849 39.2334 37.5136 37.5615C36.9422 35.8895 35.8232 34.4343 34.3195 33.4077L33.7258 32.9852C33.22 32.6414 32.853 32.1441 32.6857 31.5755C32.5183 31.007 32.5606 30.4012 32.8055 29.8585Z" fill="#8C2DF5"/>
</svg>
