<svg width="92" height="87" viewBox="0 0 92 87" fill="none" xmlns="http://www.w3.org/2000/svg">
<path d="M82.6504 19.1322L71.6143 8.77467C71.0807 8.27285 70.4467 7.87497 69.7487 7.60393C69.0507 7.33288 68.3025 7.19402 67.5471 7.19532C66.0713 7.19532 64.6031 7.72057 63.4799 8.77467L49.8333 21.5858H15.3333C14.3167 21.5858 13.3416 21.9648 12.6228 22.6395C11.9039 23.3142 11.5 24.2293 11.5 25.1834V71.9524C11.5 72.9065 11.9039 73.8216 12.6228 74.4963C13.3416 75.171 14.3167 75.55 15.3333 75.55H65.1666C66.1833 75.55 67.1583 75.171 67.8772 74.4963C68.5961 73.8216 68.9999 72.9065 68.9999 71.9524V39.5739L82.6504 26.7628C83.7736 25.7087 84.3333 24.3272 84.3333 22.9457C84.3333 21.5642 83.7736 20.1863 82.6504 19.1322ZM44.0833 52.7843L35.7573 44.9703L59.8804 22.3305L68.2064 30.1445L44.0833 52.7843ZM34.2661 47.9671L40.9975 54.1838L34.5 53.9643L34.2661 47.9671ZM61.3333 68.3548H19.1667V28.781H42.1666L29.9766 40.2214C28.8535 41.2755 28.1443 43.1427 27.5655 44.8588C26.9521 46.6576 26.8333 48.6578 26.8333 50.1473V61.1596H38.5671C40.1541 61.1596 42.8145 60.7998 44.5893 60.1162C46.368 59.4327 48.024 58.8679 49.1433 57.8138L61.3333 46.7691V68.3548ZM70.9166 27.601L62.5906 19.787L67.5471 15.1353L75.8693 22.9493L70.9166 27.601Z" fill="#8C2DF5"/>
</svg>
