<svg width="26" height="26" viewBox="0 0 26 26" fill="none" xmlns="http://www.w3.org/2000/svg">
<g clip-path="url(#clip0)">
<path d="M6.59304 25.908C5.58738 25.8968 4.59117 25.7123 3.64816 25.3627C2.95953 25.1082 2.33648 24.703 1.82459 24.1767C1.29688 23.6658 0.891057 23.0426 0.637255 22.3534C0.287976 21.4104 0.103792 20.4143 0.0927843 19.4087C0.015549 17.7371 0 17.2357 0 13C0 8.76429 0.0170784 8.26469 0.0920196 6.59176C0.104363 5.58663 0.288774 4.59103 0.637255 3.64816C0.892292 2.95941 1.29754 2.33612 1.82357 1.82357C2.33483 1.29634 2.95816 0.890888 3.64739 0.637255C4.59041 0.287687 5.58661 0.103243 6.59227 0.0920196C8.26443 0.015549 8.76659 0 13 0C17.2334 0 17.7353 0.0170784 19.4082 0.0920196C20.4136 0.104275 21.4095 0.288688 22.3526 0.637255C23.0415 0.891223 23.6647 1.29653 24.1762 1.82331C24.7031 2.33496 25.1086 2.95829 25.3627 3.64739C25.7124 4.59039 25.8969 5.5866 25.9082 6.59227C25.9847 8.2652 26.0003 8.76608 26.0003 13.0005C26.0003 17.2349 25.9847 17.7358 25.9082 19.4087C25.8961 20.4143 25.7116 21.4102 25.3627 22.3534C25.0989 23.0373 24.6947 23.6584 24.1763 24.1767C23.6578 24.695 23.0366 25.099 22.3526 25.3627C21.4096 25.7124 20.4134 25.8969 19.4077 25.9082C17.7363 25.9847 17.2339 26.0003 12.9995 26.0003C8.76506 26.0003 8.26418 25.9855 6.59278 25.9082" fill="url(#paint0_radial)"/>
<path d="M6.59304 25.908C5.58738 25.8968 4.59117 25.7123 3.64816 25.3627C2.95953 25.1082 2.33648 24.703 1.82459 24.1767C1.29688 23.6658 0.891057 23.0426 0.637255 22.3534C0.287976 21.4104 0.103792 20.4143 0.0927843 19.4087C0.015549 17.7371 0 17.2357 0 13C0 8.76429 0.0170784 8.26469 0.0920196 6.59176C0.104363 5.58663 0.288774 4.59103 0.637255 3.64816C0.892292 2.95941 1.29754 2.33612 1.82357 1.82357C2.33483 1.29634 2.95816 0.890888 3.64739 0.637255C4.59041 0.287687 5.58661 0.103243 6.59227 0.0920196C8.26443 0.015549 8.76659 0 13 0C17.2334 0 17.7353 0.0170784 19.4082 0.0920196C20.4136 0.104275 21.4095 0.288688 22.3526 0.637255C23.0415 0.891223 23.6647 1.29653 24.1762 1.82331C24.7031 2.33496 25.1086 2.95829 25.3627 3.64739C25.7124 4.59039 25.8969 5.5866 25.9082 6.59227C25.9847 8.2652 26.0003 8.76608 26.0003 13.0005C26.0003 17.2349 25.9847 17.7358 25.9082 19.4087C25.8961 20.4143 25.7116 21.4102 25.3627 22.3534C25.0989 23.0373 24.6947 23.6584 24.1763 24.1767C23.6578 24.695 23.0366 25.099 22.3526 25.3627C21.4096 25.7124 20.4134 25.8969 19.4077 25.9082C17.7363 25.9847 17.2339 26.0003 12.9995 26.0003C8.76506 26.0003 8.26418 25.9855 6.59278 25.9082" fill="url(#paint1_radial)"/>
<path d="M9.80801 13.055C9.80806 12.4182 9.99695 11.7957 10.3508 11.2662C10.7046 10.7368 11.2075 10.3242 11.7959 10.0805C12.3842 9.83689 13.0316 9.77319 13.6561 9.8975C14.2807 10.0218 14.8544 10.3285 15.3046 10.7788C15.7548 11.2292 16.0614 11.8029 16.1856 12.4275C16.3097 13.0521 16.2459 13.6995 16.0021 14.2878C15.7583 14.876 15.3456 15.3788 14.816 15.7325C14.2865 16.0863 13.664 16.275 13.0272 16.2749C12.1733 16.2748 11.3545 15.9354 10.7508 15.3316C10.1471 14.7278 9.80794 13.9088 9.80801 13.055ZM8.06728 13.055C8.06728 14.0359 8.35817 14.9949 8.90317 15.8105C9.44817 16.6262 10.2228 17.2619 11.1291 17.6373C12.0354 18.0127 13.0327 18.1109 13.9948 17.9196C14.9569 17.7282 15.8407 17.2558 16.5343 16.5621C17.228 15.8685 17.7004 14.9847 17.8917 14.0226C18.0831 13.0605 17.9849 12.0632 17.6095 11.1569C17.2341 10.2506 16.5984 9.47598 15.7827 8.93098C14.9671 8.38598 14.0081 8.09509 13.0272 8.09509C12.3758 8.09505 11.7308 8.22333 11.1291 8.47257C10.5273 8.72182 9.9805 9.08715 9.51992 9.54773C9.05935 10.0083 8.69401 10.5551 8.44476 11.1569C8.19552 11.7586 8.06725 12.4036 8.06728 13.055ZM17.0243 7.89856C17.0242 8.1278 17.0921 8.35192 17.2193 8.54257C17.3466 8.73323 17.5276 8.88187 17.7393 8.96969C17.9511 9.05751 18.1841 9.08056 18.4089 9.03594C18.6338 8.99132 18.8404 8.88102 19.0025 8.71899C19.1647 8.55697 19.2752 8.3505 19.32 8.12569C19.3648 7.90088 19.342 7.66782 19.2543 7.456C19.1667 7.24417 19.0182 7.06309 18.8277 6.93565C18.6371 6.80821 18.4131 6.74014 18.1838 6.74003C17.8766 6.74017 17.5819 6.86226 17.3646 7.07948C17.1473 7.2967 17.0251 7.59129 17.0248 7.89856H17.0243ZM9.12538 20.9174C8.51288 20.9107 7.90611 20.7986 7.33163 20.5861C6.91501 20.4255 6.53664 20.1794 6.22085 19.8638C5.90507 19.5481 5.65888 19.1699 5.49812 18.7533C5.28548 18.1789 5.17338 17.5721 5.16675 16.9596C5.11985 15.9415 5.11067 15.6356 5.11067 13.0562C5.11067 10.4769 5.12087 10.1718 5.16675 9.15268C5.17418 8.54025 5.28625 7.93359 5.49812 7.35893C5.65869 6.94218 5.90481 6.56371 6.22061 6.24791C6.53641 5.93211 6.91488 5.68599 7.33163 5.52542C7.90608 5.31278 8.51287 5.20069 9.12538 5.19405C10.1435 5.14715 10.4493 5.13797 13.0277 5.13797C15.606 5.13797 15.9121 5.14792 16.9312 5.19431C17.5437 5.20174 18.1503 5.31381 18.725 5.52568C19.1417 5.68626 19.5202 5.93239 19.836 6.24818C20.1518 6.56398 20.3979 6.94245 20.5585 7.35919C20.7711 7.93364 20.8832 8.54043 20.8899 9.15294C20.9368 10.1725 20.9459 10.4769 20.9459 13.0565C20.9459 15.6361 20.9365 15.941 20.8899 16.9601C20.8827 17.5725 20.7707 18.1792 20.5585 18.7538C20.3977 19.1704 20.1516 19.5486 19.8358 19.8643C19.52 20.1799 19.1416 20.426 18.725 20.5866C18.1505 20.7992 17.5437 20.9113 16.9312 20.9179C15.9132 20.9648 15.6073 20.974 13.0277 20.974C10.4481 20.974 10.1432 20.9646 9.12538 20.9179V20.9174ZM9.04534 3.45486C8.24389 3.47062 7.45092 3.62231 6.70024 3.90348C6.05853 4.15159 5.47574 4.53107 4.98924 5.01756C4.50275 5.50406 4.12327 6.08685 3.87516 6.72856C3.59403 7.47925 3.44233 8.27221 3.42654 9.07366C3.37887 10.1035 3.36816 10.4328 3.36816 13.056C3.36816 15.6792 3.37913 16.0083 3.42654 17.0383C3.44233 17.8398 3.59402 18.6327 3.87516 19.3834C4.12329 20.0251 4.50276 20.6079 4.98926 21.0944C5.47575 21.5809 6.05853 21.9604 6.70024 22.2085C7.45096 22.4895 8.2439 22.6412 9.04534 22.6571C10.0757 22.704 10.4045 22.7155 13.0277 22.7155C15.6509 22.7155 15.98 22.7045 17.01 22.6571C17.8115 22.6413 18.6044 22.4896 19.3551 22.2085C19.9968 21.9604 20.5796 21.5809 21.0661 21.0944C21.5526 20.6079 21.9321 20.0251 22.1802 19.3834C22.4617 18.6328 22.6134 17.8398 22.6288 17.0383C22.6757 16.0078 22.6864 15.6792 22.6864 13.056C22.6864 10.4328 22.6755 10.1037 22.6288 9.07366C22.6131 8.27221 22.4614 7.47924 22.1802 6.72856C21.9321 6.08697 21.5527 5.50427 21.0663 5.01779C20.58 4.53131 19.9974 4.15177 19.3559 3.90348C18.6052 3.62213 17.8122 3.47043 17.0108 3.45486C15.9807 3.4077 15.6516 3.39648 13.0289 3.39648C10.4063 3.39648 10.0764 3.40745 9.04585 3.45486" fill="white"/>
</g>
<defs>
<radialGradient id="paint0_radial" cx="0" cy="0" r="1" gradientUnits="userSpaceOnUse" gradientTransform="translate(1.68261 25.4305) scale(33.0103)">
<stop offset="0.09" stop-color="#FA8F21"/>
<stop offset="0.78" stop-color="#D82D7E"/>
</radialGradient>
<radialGradient id="paint1_radial" cx="0" cy="0" r="1" gradientUnits="userSpaceOnUse" gradientTransform="translate(18.0093 24.5955) scale(29.0494)">
<stop offset="0.64" stop-color="#8C3AAA" stop-opacity="0"/>
<stop offset="1" stop-color="#8C3AAA"/>
</radialGradient>
<clipPath id="clip0">
<rect width="26" height="26" fill="white"/>
</clipPath>
</defs>
</svg>
