<svg width="146" height="50" viewBox="0 0 146 50" fill="none" xmlns="http://www.w3.org/2000/svg">
<path d="M30.7773 34.6582L30.9277 33.9062C31.8802 34.2708 32.974 34.4531 34.209 34.4531C36.2552 34.4531 37.4333 33.6784 37.7432 32.1289C37.971 30.9896 37.4196 30.4199 36.0889 30.4199H34.0791C32.2607 30.4199 31.5156 29.5996 31.8438 27.959C32.2174 26.0905 33.7373 25.1562 36.4033 25.1562C37.4971 25.1562 38.5293 25.293 39.5 25.5664L39.3633 26.25C38.4017 25.931 37.374 25.7715 36.2803 25.7715C34.0928 25.7715 32.8532 26.5007 32.5615 27.959C32.3245 29.1439 32.876 29.7363 34.2158 29.7363H36.2256C38.0348 29.7363 38.7799 30.5339 38.4609 32.1289C38.069 34.0885 36.6107 35.0684 34.0859 35.0684C32.8509 35.0684 31.748 34.9316 30.7773 34.6582ZM48.7107 25.2246L48.5877 25.8398H45.2381L43.4061 35H42.6883L44.5203 25.8398H41.2391L41.3621 25.2246H48.7107ZM48.5836 35H47.7701L54.148 25.2246H55.0025L57.4908 35H56.6842L55.8912 31.7188H51.5094L51.8443 31.1035H55.7477L54.4693 25.7852L48.5836 35ZM59.5238 35L61.4789 25.2246H65.5121C67.2803 25.2246 68.0072 26.0062 67.6928 27.5693C67.4011 29.0186 66.2504 29.9779 64.2406 30.4473L66.6332 35H65.7855L63.4477 30.4678L63.5434 29.9688C65.5167 29.6816 66.6309 28.9001 66.8861 27.624C67.1186 26.4482 66.5785 25.8604 65.266 25.8604H62.0668L60.2416 35H59.5238ZM76.909 35L78.8641 25.2246H79.5818L82.2068 34.1592L88.1268 25.2246H88.7762L86.8211 35H86.1717L87.8602 26.5439L82.2889 35H81.701L79.2605 26.4756L77.5584 35H76.909ZM89.6676 35H88.8541L95.232 25.2246H96.0865L98.5748 35H97.7682L96.9752 31.7188H92.5934L92.9283 31.1035H96.8316L95.5533 25.7852L89.6676 35ZM100.608 35L102.563 25.2246H106.664C108.569 25.2246 109.342 26.1201 108.982 27.9111C108.631 29.6748 106.883 30.7982 103.739 31.2812L103.746 30.625C106.416 30.265 107.893 29.3786 108.175 27.9658C108.453 26.5622 107.868 25.8604 106.418 25.8604H103.151L101.326 35H100.608ZM109.948 35L111.904 25.2246H116.005C117.91 25.2246 118.682 26.1201 118.322 27.9111C117.972 29.6748 116.224 30.7982 113.079 31.2812L113.086 30.625C115.757 30.265 117.233 29.3786 117.516 27.9658C117.794 26.5622 117.208 25.8604 115.759 25.8604H112.491L110.666 35H109.948ZM122.304 25.2246L120.349 35H119.631L121.586 25.2246H122.304ZM123.585 35L125.54 25.2246H126.326L131.248 33.9473L132.991 25.2246H133.64L131.685 35H131.104L126.025 26.0312L124.234 35H123.585ZM142.174 34.6172C141.281 34.918 140.379 35.0684 139.467 35.0684C135.972 35.0684 134.564 33.3708 135.243 29.9756C135.885 26.7627 137.916 25.1562 141.334 25.1562C142.268 25.1562 143.152 25.293 143.986 25.5664L143.863 26.1816C143.029 25.9082 142.19 25.7715 141.347 25.7715C138.317 25.7715 136.521 27.1729 135.961 29.9756C135.364 32.9606 136.537 34.4531 139.481 34.4531C140.083 34.4531 140.773 34.3529 141.552 34.1523L142.27 30.5566H142.988L142.174 34.6172Z" fill="white"/>
<path d="M30.7773 34.6582L30.2871 34.5601L30.1963 35.014L30.6418 35.1395L30.7773 34.6582ZM30.9277 33.9062L31.1065 33.4393L30.5536 33.2276L30.4374 33.8082L30.9277 33.9062ZM39.5 25.5664L39.9903 25.6645L40.0811 25.2106L39.6356 25.0851L39.5 25.5664ZM39.3633 26.25L39.2058 26.7246L39.7427 26.9027L39.8536 26.3481L39.3633 26.25ZM32.5615 27.959L32.0712 27.8609L32.5615 27.959ZM38.4609 32.1289L37.9706 32.0308L38.4609 32.1289ZM31.2676 34.7563L31.418 34.0043L30.4374 33.8082L30.2871 34.5601L31.2676 34.7563ZM30.749 34.3732C31.7692 34.7637 32.9254 34.9531 34.209 34.9531V33.9531C33.0225 33.9531 31.9913 33.778 31.1065 33.4393L30.749 34.3732ZM34.209 34.9531C35.2879 34.9531 36.2023 34.75 36.9019 34.2898C37.6166 33.8198 38.0558 33.1155 38.2335 32.227L37.2529 32.0308C37.1207 32.6918 36.8158 33.1496 36.3525 33.4543C35.8741 33.7689 35.1763 33.9531 34.209 33.9531V34.9531ZM38.2335 32.227C38.3637 31.5758 38.2965 30.9506 37.8597 30.4994C37.4429 30.0688 36.8026 29.9199 36.0889 29.9199V30.9199C36.7058 30.9199 37.0067 31.0559 37.1412 31.1949C37.2559 31.3134 37.3505 31.5427 37.2529 32.0308L38.2335 32.227ZM36.0889 29.9199H34.0791V30.9199H36.0889V29.9199ZM34.0791 29.9199C33.2236 29.9199 32.7584 29.7237 32.5266 29.4685C32.3068 29.2265 32.1847 28.804 32.334 28.057L31.3535 27.8609C31.1747 28.7546 31.2611 29.5626 31.7864 30.1409C32.2997 30.706 33.1163 30.9199 34.0791 30.9199V29.9199ZM32.334 28.057C32.4957 27.2487 32.893 26.6718 33.5258 26.2829C34.1772 25.8825 35.1202 25.6562 36.4033 25.6562V24.6562C35.0205 24.6562 33.8705 24.8971 33.0021 25.431C32.115 25.9763 31.5655 26.8008 31.3535 27.8609L32.334 28.057ZM36.4033 25.6562C37.4551 25.6562 38.4414 25.7877 39.3644 26.0477L39.6356 25.0851C38.6172 24.7983 37.5391 24.6562 36.4033 24.6562V25.6562ZM39.0097 25.4683L38.873 26.1519L39.8536 26.3481L39.9903 25.6645L39.0097 25.4683ZM39.5207 25.7754C38.5045 25.4383 37.4233 25.2715 36.2803 25.2715V26.2715C37.3248 26.2715 38.2989 26.4237 39.2058 26.7246L39.5207 25.7754ZM36.2803 25.2715C35.1402 25.2715 34.1831 25.46 33.4565 25.8874C32.7092 26.3269 32.2439 26.9976 32.0712 27.8609L33.0518 28.057C33.1708 27.4621 33.4711 27.039 33.9635 26.7493C34.4764 26.4476 35.2328 26.2715 36.2803 26.2715V25.2715ZM32.0712 27.8609C31.9375 28.5298 31.9997 29.1689 32.4314 29.6326C32.8481 30.0804 33.4943 30.2363 34.2158 30.2363V29.2363C33.5975 29.2363 33.2981 29.0961 33.1634 28.9513C33.0436 28.8227 32.9486 28.5731 33.0518 28.057L32.0712 27.8609ZM34.2158 30.2363H36.2256V29.2363H34.2158V30.2363ZM36.2256 30.2363C37.0789 30.2363 37.5445 30.428 37.776 30.6758C37.9921 30.9071 38.1148 31.3102 37.9706 32.0308L38.9512 32.227C39.1261 31.3526 39.0357 30.5593 38.5067 29.9931C37.9931 29.4434 37.1815 29.2363 36.2256 29.2363V30.2363ZM37.9706 32.0308C37.7967 32.9006 37.3987 33.5125 36.7944 33.9185C36.1764 34.3337 35.2904 34.5684 34.0859 34.5684V35.5684C35.4062 35.5684 36.5117 35.3131 37.3521 34.7485C38.2062 34.1747 38.7332 33.3169 38.9512 32.227L37.9706 32.0308ZM34.0859 34.5684C32.8869 34.5684 31.8309 34.4355 30.9129 34.1769L30.6418 35.1395C31.6652 35.4278 32.8149 35.5684 34.0859 35.5684V34.5684ZM48.7107 25.2246L49.201 25.3227L49.3206 24.7246H48.7107V25.2246ZM48.5877 25.8398V26.3398H48.9976L49.078 25.9379L48.5877 25.8398ZM45.2381 25.8398V25.3398H44.8282L44.7478 25.7418L45.2381 25.8398ZM43.4061 35V35.5H43.816L43.8963 35.0981L43.4061 35ZM42.6883 35L42.198 34.9019L42.0784 35.5H42.6883V35ZM44.5203 25.8398L45.0106 25.9379L45.1302 25.3398H44.5203V25.8398ZM41.2391 25.8398L40.7488 25.7418L40.6292 26.3398H41.2391V25.8398ZM41.3621 25.2246V24.7246H40.9522L40.8718 25.1266L41.3621 25.2246ZM48.2205 25.1266L48.0974 25.7418L49.078 25.9379L49.201 25.3227L48.2205 25.1266ZM48.5877 25.3398H45.2381V26.3398H48.5877V25.3398ZM44.7478 25.7418L42.9158 34.9019L43.8963 35.0981L45.7284 25.9379L44.7478 25.7418ZM43.4061 34.5H42.6883V35.5H43.4061V34.5ZM43.1786 35.0981L45.0106 25.9379L44.03 25.7418L42.198 34.9019L43.1786 35.0981ZM44.5203 25.3398H41.2391V26.3398H44.5203V25.3398ZM41.7294 25.9379L41.8524 25.3227L40.8718 25.1266L40.7488 25.7418L41.7294 25.9379ZM41.3621 25.7246H48.7107V24.7246H41.3621V25.7246ZM48.5836 35V35.5H48.8575L49.005 35.2691L48.5836 35ZM47.7701 35L47.3514 34.7268L46.8469 35.5H47.7701V35ZM54.148 25.2246V24.7246H53.8773L53.7293 24.9514L54.148 25.2246ZM55.0025 25.2246L55.4871 25.1013L55.3912 24.7246H55.0025V25.2246ZM57.4908 35V35.5H58.134L57.9754 34.8767L57.4908 35ZM56.6842 35L56.1982 35.1175L56.2906 35.5H56.6842V35ZM55.8912 31.7188L56.3772 31.6013L56.2848 31.2188H55.8912V31.7188ZM51.5094 31.7188L51.0702 31.4797L50.6679 32.2188H51.5094V31.7188ZM51.8443 31.1035V30.6035H51.5473L51.4052 30.8644L51.8443 31.1035ZM55.7477 31.1035V31.6035H56.3821L56.2338 30.9867L55.7477 31.1035ZM54.4693 25.7852L54.9555 25.6683L54.6808 24.5253L54.048 25.516L54.4693 25.7852ZM48.5836 34.5H47.7701V35.5H48.5836V34.5ZM48.1889 35.2732L54.5668 25.4978L53.7293 24.9514L47.3514 34.7268L48.1889 35.2732ZM54.148 25.7246H55.0025V24.7246H54.148V25.7246ZM54.518 25.3479L57.0063 35.1233L57.9754 34.8767L55.4871 25.1013L54.518 25.3479ZM57.4908 34.5H56.6842V35.5H57.4908V34.5ZM57.1702 34.8825L56.3772 31.6013L55.4052 31.8362L56.1982 35.1175L57.1702 34.8825ZM55.8912 31.2188H51.5094V32.2188H55.8912V31.2188ZM51.9485 31.9578L52.2835 31.3426L51.4052 30.8644L51.0702 31.4797L51.9485 31.9578ZM51.8443 31.6035H55.7477V30.6035H51.8443V31.6035ZM56.2338 30.9867L54.9555 25.6683L53.9832 25.902L55.2615 31.2204L56.2338 30.9867ZM54.048 25.516L48.1622 34.7309L49.005 35.2691L54.8907 26.0543L54.048 25.516ZM59.5238 35L59.0335 34.9019L58.9139 35.5H59.5238V35ZM61.4789 25.2246V24.7246H61.069L60.9886 25.1266L61.4789 25.2246ZM67.6928 27.5693L68.1829 27.668L68.183 27.6679L67.6928 27.5693ZM64.2406 30.4473L64.1269 29.9604L63.4972 30.1074L63.798 30.6799L64.2406 30.4473ZM66.6332 35V35.5H67.4608L67.0758 34.7674L66.6332 35ZM65.7855 35L65.3412 35.2292L65.4809 35.5H65.7855V35ZM63.4477 30.4678L62.9566 30.3736L62.924 30.5434L63.0033 30.697L63.4477 30.4678ZM63.5434 29.9688L63.4714 29.474L63.1193 29.5252L63.0523 29.8746L63.5434 29.9688ZM66.8861 27.624L67.3764 27.7221L67.3766 27.721L66.8861 27.624ZM62.0668 25.8604V25.3604H61.6568L61.5765 25.7624L62.0668 25.8604ZM60.2416 35V35.5H60.6516L60.7319 35.0979L60.2416 35ZM60.0141 35.0981L61.9692 25.3227L60.9886 25.1266L59.0335 34.9019L60.0141 35.0981ZM61.4789 25.7246H65.5121V24.7246H61.4789V25.7246ZM65.5121 25.7246C66.3448 25.7246 66.7949 25.9122 67.0173 26.1513C67.2247 26.3743 67.3445 26.7654 67.2026 27.4707L68.183 27.6679C68.3555 26.8101 68.2691 26.0289 67.7496 25.4703C67.2451 24.9278 66.4477 24.7246 65.5121 24.7246V25.7246ZM67.2026 27.4707C66.9647 28.6526 66.0343 29.5149 64.1269 29.9604L64.3543 30.9342C66.4665 30.4408 67.8375 29.3845 68.1829 27.668L67.2026 27.4707ZM63.798 30.6799L66.1906 35.2326L67.0758 34.7674L64.6832 30.2147L63.798 30.6799ZM66.6332 34.5H65.7855V35.5H66.6332V34.5ZM66.2299 34.7708L63.892 30.2386L63.0033 30.697L65.3412 35.2292L66.2299 34.7708ZM63.9387 30.5619L64.0344 30.0629L63.0523 29.8746L62.9566 30.3736L63.9387 30.5619ZM63.6153 30.4635C65.6671 30.165 67.0587 29.3106 67.3764 27.7221L66.3958 27.526C66.2031 28.4895 65.3662 29.1983 63.4714 29.474L63.6153 30.4635ZM67.3766 27.721C67.5076 27.0583 67.4474 26.4243 67.0236 25.963C66.6129 25.5159 65.9753 25.3604 65.266 25.3604V26.3604C65.8692 26.3604 66.1579 26.4988 66.2872 26.6395C66.4035 26.7661 66.4971 27.0139 66.3956 27.5271L67.3766 27.721ZM65.266 25.3604H62.0668V26.3604H65.266V25.3604ZM61.5765 25.7624L59.7513 34.9021L60.7319 35.0979L62.5571 25.9583L61.5765 25.7624ZM60.2416 34.5H59.5238V35.5H60.2416V34.5ZM76.909 35L76.4187 34.9019L76.2991 35.5H76.909V35ZM78.8641 25.2246V24.7246H78.4542L78.3738 25.1266L78.8641 25.2246ZM79.5818 25.2246L80.0616 25.0837L79.9561 24.7246H79.5818V25.2246ZM82.2068 34.1592L81.7271 34.3001L82.0301 35.3312L82.6236 34.4354L82.2068 34.1592ZM88.1268 25.2246V24.7246H87.8583L87.7099 24.9484L88.1268 25.2246ZM88.7762 25.2246L89.2665 25.3227L89.3861 24.7246H88.7762V25.2246ZM86.8211 35V35.5H87.231L87.3114 35.0981L86.8211 35ZM86.1717 35L85.6814 34.9021L85.562 35.5H86.1717V35ZM87.8602 26.5439L88.3505 26.6419L87.4426 26.2689L87.8602 26.5439ZM82.2889 35V35.5H82.5582L82.7064 35.2751L82.2889 35ZM81.701 35L81.2203 35.1376L81.324 35.5H81.701V35ZM79.2605 26.4756L79.7412 26.338L78.7702 26.3777L79.2605 26.4756ZM77.5584 35V35.5H77.9684L78.0487 35.0979L77.5584 35ZM77.3993 35.0981L79.3544 25.3227L78.3738 25.1266L76.4187 34.9019L77.3993 35.0981ZM78.8641 25.7246H79.5818V24.7246H78.8641V25.7246ZM79.1021 25.3656L81.7271 34.3001L82.6866 34.0182L80.0616 25.0837L79.1021 25.3656ZM82.6236 34.4354L88.5436 25.5008L87.7099 24.9484L81.79 33.883L82.6236 34.4354ZM88.1268 25.7246H88.7762V24.7246H88.1268V25.7246ZM88.2859 25.1266L86.3308 34.9019L87.3114 35.0981L89.2665 25.3227L88.2859 25.1266ZM86.8211 34.5H86.1717V35.5H86.8211V34.5ZM86.662 35.0979L88.3505 26.6419L87.3698 26.446L85.6814 34.9021L86.662 35.0979ZM87.4426 26.2689L81.8713 34.7249L82.7064 35.2751L88.2777 26.819L87.4426 26.2689ZM82.2889 34.5H81.701V35.5H82.2889V34.5ZM82.1817 34.8624L79.7412 26.338L78.7799 26.6132L81.2203 35.1376L82.1817 34.8624ZM78.7702 26.3777L77.0681 34.9021L78.0487 35.0979L79.7509 26.5735L78.7702 26.3777ZM77.5584 34.5H76.909V35.5H77.5584V34.5ZM89.6676 35V35.5H89.9415L90.089 35.2691L89.6676 35ZM88.8541 35L88.4353 34.7268L87.9309 35.5H88.8541V35ZM95.232 25.2246V24.7246H94.9612L94.8133 24.9514L95.232 25.2246ZM96.0865 25.2246L96.5711 25.1013L96.4752 24.7246H96.0865V25.2246ZM98.5748 35V35.5H99.218L99.0594 34.8767L98.5748 35ZM97.7682 35L97.2822 35.1175L97.3746 35.5H97.7682V35ZM96.9752 31.7188L97.4612 31.6013L97.3688 31.2188H96.9752V31.7188ZM92.5934 31.7188L92.1542 31.4797L91.7518 32.2188H92.5934V31.7188ZM92.9283 31.1035V30.6035H92.6312L92.4892 30.8644L92.9283 31.1035ZM96.8316 31.1035V31.6035H97.4661L97.3178 30.9867L96.8316 31.1035ZM95.5533 25.7852L96.0395 25.6683L95.7647 24.5253L95.1319 25.516L95.5533 25.7852ZM89.6676 34.5H88.8541V35.5H89.6676V34.5ZM89.2729 35.2732L95.6508 25.4978L94.8133 24.9514L88.4353 34.7268L89.2729 35.2732ZM95.232 25.7246H96.0865V24.7246H95.232V25.7246ZM95.602 25.3479L98.0903 35.1233L99.0594 34.8767L96.5711 25.1013L95.602 25.3479ZM98.5748 34.5H97.7682V35.5H98.5748V34.5ZM98.2542 34.8825L97.4612 31.6013L96.4892 31.8362L97.2822 35.1175L98.2542 34.8825ZM96.9752 31.2188H92.5934V32.2188H96.9752V31.2188ZM93.0325 31.9578L93.3675 31.3426L92.4892 30.8644L92.1542 31.4797L93.0325 31.9578ZM92.9283 31.6035H96.8316V30.6035H92.9283V31.6035ZM97.3178 30.9867L96.0395 25.6683L95.0672 25.902L96.3455 31.2204L97.3178 30.9867ZM95.1319 25.516L89.2462 34.7309L90.089 35.2691L95.9747 26.0543L95.1319 25.516ZM100.608 35L100.118 34.9019L99.9979 35.5H100.608V35ZM102.563 25.2246V24.7246H102.153L102.073 25.1266L102.563 25.2246ZM108.982 27.9111L108.492 27.8126L108.491 27.8136L108.982 27.9111ZM103.739 31.2812L103.239 31.276L103.233 31.8649L103.815 31.7755L103.739 31.2812ZM103.746 30.625L103.679 30.1295L103.25 30.1873L103.246 30.6198L103.746 30.625ZM108.175 27.9658L108.665 28.0639L108.666 28.063L108.175 27.9658ZM103.151 25.8604V25.3604H102.741L102.66 25.7624L103.151 25.8604ZM101.326 35V35.5H101.736L101.816 35.0979L101.326 35ZM101.098 35.0981L103.053 25.3227L102.073 25.1266L100.118 34.9019L101.098 35.0981ZM102.563 25.7246H106.664V24.7246H102.563V25.7246ZM106.664 25.7246C107.559 25.7246 108.048 25.9374 108.294 26.2228C108.534 26.5014 108.658 26.9845 108.492 27.8126L109.472 28.0097C109.666 27.0467 109.583 26.1866 109.051 25.5697C108.525 24.9595 107.675 24.7246 106.664 24.7246V25.7246ZM108.491 27.8136C108.208 29.2396 106.774 30.3091 103.663 30.787L103.815 31.7755C106.992 31.2873 109.054 30.11 109.472 28.0087L108.491 27.8136ZM104.239 31.2865L104.245 30.6302L103.246 30.6198L103.239 31.276L104.239 31.2865ZM103.812 31.1205C105.181 30.936 106.293 30.6112 107.113 30.1189C107.947 29.6186 108.491 28.9352 108.665 28.0639L107.685 27.8678C107.577 28.4092 107.242 28.8754 106.599 29.2615C105.942 29.6556 104.981 29.954 103.679 30.1295L103.812 31.1205ZM108.666 28.063C108.817 27.2972 108.762 26.5861 108.328 26.0664C107.896 25.5488 107.205 25.3604 106.418 25.3604V26.3604C107.081 26.3604 107.407 26.5228 107.561 26.7071C107.713 26.8892 107.811 27.2308 107.685 27.8687L108.666 28.063ZM106.418 25.3604H103.151V26.3604H106.418V25.3604ZM102.66 25.7624L100.835 34.9021L101.816 35.0979L103.641 25.9583L102.66 25.7624ZM101.326 34.5H100.608V35.5H101.326V34.5ZM109.948 35L109.458 34.9019L109.339 35.5H109.948V35ZM111.904 25.2246V24.7246H111.494L111.413 25.1266L111.904 25.2246ZM118.322 27.9111L117.832 27.8126L117.832 27.8136L118.322 27.9111ZM113.079 31.2812L112.579 31.276L112.573 31.8649L113.155 31.7755L113.079 31.2812ZM113.086 30.625L113.019 30.1295L112.591 30.1873L112.586 30.6198L113.086 30.625ZM117.516 27.9658L118.006 28.0639L118.006 28.063L117.516 27.9658ZM112.491 25.8604V25.3604H112.081L112.001 25.7624L112.491 25.8604ZM110.666 35V35.5H111.076L111.157 35.0979L110.666 35ZM110.439 35.0981L112.394 25.3227L111.413 25.1266L109.458 34.9019L110.439 35.0981ZM111.904 25.7246H116.005V24.7246H111.904V25.7246ZM116.005 25.7246C116.899 25.7246 117.388 25.9374 117.635 26.2228C117.875 26.5014 117.999 26.9845 117.832 27.8126L118.813 28.0097C119.006 27.0467 118.924 26.1866 118.392 25.5697C117.865 24.9595 117.016 24.7246 116.005 24.7246V25.7246ZM117.832 27.8136C117.548 29.2396 116.115 30.3091 113.003 30.787L113.155 31.7755C116.333 31.2873 118.395 30.11 118.813 28.0087L117.832 27.8136ZM113.579 31.2865L113.586 30.6302L112.586 30.6198L112.579 31.276L113.579 31.2865ZM113.153 31.1205C114.522 30.936 115.634 30.6112 116.454 30.1189C117.287 29.6186 117.832 28.9352 118.006 28.0639L117.026 27.8678C116.917 28.4092 116.582 28.8754 115.939 29.2615C115.283 29.6556 114.321 29.954 113.019 30.1295L113.153 31.1205ZM118.006 28.063C118.158 27.2972 118.103 26.5861 117.669 26.0664C117.237 25.5488 116.546 25.3604 115.759 25.3604V26.3604C116.422 26.3604 116.747 26.5228 116.901 26.7071C117.053 26.8892 117.152 27.2308 117.025 27.8687L118.006 28.063ZM115.759 25.3604H112.491V26.3604H115.759V25.3604ZM112.001 25.7624L110.176 34.9021L111.157 35.0979L112.982 25.9583L112.001 25.7624ZM110.666 34.5H109.948V35.5H110.666V34.5ZM122.304 25.2246L122.794 25.3227L122.914 24.7246H122.304V25.2246ZM120.349 35V35.5H120.759L120.839 35.0981L120.349 35ZM119.631 35L119.141 34.9019L119.021 35.5H119.631V35ZM121.586 25.2246V24.7246H121.176L121.096 25.1266L121.586 25.2246ZM121.813 25.1266L119.858 34.9019L120.839 35.0981L122.794 25.3227L121.813 25.1266ZM120.349 34.5H119.631V35.5H120.349V34.5ZM120.121 35.0981L122.076 25.3227L121.096 25.1266L119.141 34.9019L120.121 35.0981ZM121.586 25.7246H122.304V24.7246H121.586V25.7246ZM123.585 35L123.094 34.9019L122.975 35.5H123.585V35ZM125.54 25.2246V24.7246H125.13L125.05 25.1266L125.54 25.2246ZM126.326 25.2246L126.761 24.9789L126.618 24.7246H126.326V25.2246ZM131.248 33.9473L130.812 34.193L131.474 35.3659L131.738 34.0452L131.248 33.9473ZM132.991 25.2246V24.7246H132.581L132.501 25.1266L132.991 25.2246ZM133.64 25.2246L134.131 25.3227L134.25 24.7246H133.64V25.2246ZM131.685 35V35.5H132.095L132.176 35.0981L131.685 35ZM131.104 35L130.669 35.2464L130.813 35.5H131.104V35ZM126.025 26.0312L126.46 25.7849L125.798 24.6155L125.535 25.9333L126.025 26.0312ZM124.234 35V35.5H124.644L124.724 35.0979L124.234 35ZM124.075 35.0981L126.03 25.3227L125.05 25.1266L123.094 34.9019L124.075 35.0981ZM125.54 25.7246H126.326V24.7246H125.54V25.7246ZM125.891 25.4703L130.812 34.193L131.683 33.7016L126.761 24.9789L125.891 25.4703ZM131.738 34.0452L133.481 25.3226L132.501 25.1266L130.758 33.8493L131.738 34.0452ZM132.991 25.7246H133.64V24.7246H132.991V25.7246ZM133.15 25.1266L131.195 34.9019L132.176 35.0981L134.131 25.3227L133.15 25.1266ZM131.685 34.5H131.104V35.5H131.685V34.5ZM131.539 34.7536L126.46 25.7849L125.59 26.2776L130.669 35.2464L131.539 34.7536ZM125.535 25.9333L123.744 34.9021L124.724 35.0979L126.516 26.1292L125.535 25.9333ZM124.234 34.5H123.585V35.5H124.234V34.5ZM142.174 34.6172L142.334 35.091L142.608 34.9988L142.665 34.7154L142.174 34.6172ZM143.986 25.5664L144.476 25.6645L144.563 25.2295L144.142 25.0913L143.986 25.5664ZM143.863 26.1816L143.707 26.6568L144.243 26.8323L144.353 26.2797L143.863 26.1816ZM141.552 34.1523L141.677 34.6366L141.981 34.5583L142.043 34.2502L141.552 34.1523ZM142.27 30.5566V30.0566H141.86L141.78 30.4588L142.27 30.5566ZM142.988 30.5566L143.478 30.6549L143.598 30.0566H142.988V30.5566ZM142.015 34.1433C141.171 34.4274 140.323 34.5684 139.467 34.5684V35.5684C140.435 35.5684 141.391 35.4085 142.334 35.091L142.015 34.1433ZM139.467 34.5684C137.782 34.5684 136.74 34.1571 136.174 33.4759C135.611 32.7964 135.406 31.7079 135.733 30.0736L134.752 29.8775C134.4 31.6384 134.56 33.0964 135.405 34.1144C136.248 35.1309 137.658 35.5684 139.467 35.5684V34.5684ZM135.733 30.0736C136.037 28.5517 136.658 27.465 137.558 26.7532C138.46 26.0394 139.701 25.6562 141.334 25.6562V24.6562C139.548 24.6562 138.065 25.0763 136.937 25.969C135.806 26.8636 135.091 28.1865 134.752 29.8775L135.733 30.0736ZM141.334 25.6562C142.218 25.6562 143.05 25.7856 143.83 26.0415L144.142 25.0913C143.254 24.8003 142.317 24.6562 141.334 24.6562V25.6562ZM143.496 25.4683L143.373 26.0836L144.353 26.2797L144.476 25.6645L143.496 25.4683ZM144.019 25.7065C143.136 25.4173 142.245 25.2715 141.347 25.2715V26.2715C142.135 26.2715 142.921 26.3991 143.707 26.6568L144.019 25.7065ZM141.347 25.2715C139.757 25.2715 138.431 25.6394 137.42 26.4283C136.406 27.22 135.768 28.3896 135.47 29.8775L136.451 30.0736C136.714 28.7588 137.254 27.8264 138.035 27.2167C138.82 26.6042 139.907 26.2715 141.347 26.2715V25.2715ZM135.47 29.8775C135.16 31.4282 135.28 32.7274 136 33.6428C136.724 34.5638 137.941 34.9531 139.481 34.9531V33.9531C138.077 33.9531 137.235 33.5962 136.786 33.0247C136.332 32.4476 136.164 31.508 136.451 30.0736L135.47 29.8775ZM139.481 34.9531C140.136 34.9531 140.87 34.8443 141.677 34.6366L141.428 33.6681C140.676 33.8614 140.029 33.9531 139.481 33.9531V34.9531ZM142.043 34.2502L142.76 30.6545L141.78 30.4588L141.062 34.0545L142.043 34.2502ZM142.27 31.0566H142.988V30.0566H142.27V31.0566ZM142.498 30.4584L141.684 34.519L142.665 34.7154L143.478 30.6549L142.498 30.4584Z" fill="white"/>
<path d="M37.6543 39H141.654L141.018 42H38.3213L37.6543 39Z" fill="#6F2AF5"/>
<path d="M40.6543 19H145.654L145.007 22H40.6543V19Z" fill="#832CF5"/>
<path fill-rule="evenodd" clip-rule="evenodd" d="M27.7312 4.8541L32.3282 19.002H47.2042H52.3081L48.1818 22H34.6543C34.617 22 34.5798 22.0007 34.5428 22.002H32.3282H30.1486L29.475 19.9291L26.1541 9.70821L22.8331 19.9291L22.1595 22.002H19.9799H9.23305L17.9275 28.3189L19.6908 29.6L19.0173 31.673L15.6963 41.8939L24.3907 35.577L26.1541 34.2959L27.9174 35.577L36.6118 41.8939L35.6715 39H38.8259L40.741 44.8939L42.3181 49.748L38.189 46.748L26.1541 38.0041L14.1191 46.748L9.98996 49.748L11.5672 44.8939L16.1641 30.7459L4.12915 22.002L0 19.002H5.10391H19.9799L24.5769 4.8541L26.1541 0L27.7312 4.8541Z" fill="url(#paint0_linear)"/>
<defs>
<linearGradient id="paint0_linear" x1="26.1541" y1="8.94304e-07" x2="54.2053" y2="55.3101" gradientUnits="userSpaceOnUse">
<stop stop-color="#C134F4"/>
<stop offset="1" stop-color="#3822F5"/>
</linearGradient>
</defs>
</svg>
