<svg width="26" height="26" viewBox="0 0 26 26" fill="none" xmlns="http://www.w3.org/2000/svg">
<g clip-path="url(#clip0)">
<path d="M25.999 19.4273C25.999 19.5696 25.9947 19.8784 25.9861 20.1169C25.9652 20.7004 25.919 21.4534 25.849 21.7965C25.7439 22.3121 25.5852 22.7987 25.3782 23.2038C25.1334 23.6829 24.8211 24.1121 24.45 24.4825C24.0797 24.8522 23.6509 25.1633 23.1724 25.4072C22.7653 25.6147 22.2756 25.7735 21.7571 25.8781C21.4174 25.9467 20.67 25.9921 20.0902 26.0127C19.8515 26.0212 19.5427 26.0255 19.4009 26.0255L6.59822 26.0235C6.45585 26.0235 6.14716 26.0191 5.90866 26.0105C5.32511 25.9896 4.57212 25.9434 4.22902 25.8734C3.71343 25.7683 3.22677 25.6096 2.82174 25.4026C2.34257 25.1578 1.91339 24.8455 1.54297 24.4744C1.17328 24.1041 0.862191 23.6753 0.618364 23.1969C0.410821 22.7897 0.252028 22.3 0.147342 21.7815C0.0787872 21.4418 0.0334141 20.6945 0.0127715 20.1146C0.00429102 19.8759 0 19.5671 0 19.4253L0.00203125 6.62265C0.00203125 6.48028 0.00637306 6.17156 0.0149297 5.93307C0.035877 5.34951 0.0821134 4.59653 0.152065 4.25345C0.257207 3.73787 0.415899 3.25121 0.622858 2.84615C0.8677 2.367 1.18003 1.9378 1.55112 1.56738C1.92141 1.19771 2.35021 0.886603 2.82865 0.642752C3.23584 0.43526 3.72555 0.276467 4.24405 0.171781C4.5837 0.103201 5.33107 0.0578281 5.91089 0.0372109C6.14962 0.0287051 6.45844 0.0244141 6.60023 0.0244141L19.4029 0.0264707C19.5453 0.0264707 19.854 0.0308125 20.0925 0.0393691C20.676 0.0603164 21.429 0.106553 21.7721 0.176504C22.2877 0.281646 22.7743 0.440338 23.1794 0.647297C23.6585 0.892139 24.0877 1.20447 24.4581 1.57555C24.8278 1.94585 25.1389 2.37462 25.3827 2.85308C25.5903 3.26027 25.7491 3.74996 25.8538 4.26846C25.9223 4.60813 25.9677 5.35548 25.9883 5.93533C25.9968 6.17405 26.0011 6.48285 26.0011 6.62468L25.999 19.4273Z" fill="url(#paint0_linear)"/>
<path d="M19.8882 6.17589C18.1278 4.41411 15.7868 3.44337 13.2926 3.44238C8.15349 3.44238 3.97086 7.62341 3.9688 12.7626C3.96814 14.4053 4.39747 16.0089 5.21338 17.4223L3.89062 22.2524L8.8333 20.9562C10.1951 21.6988 11.7284 22.0901 13.2889 22.0907H13.2927C18.4313 22.0907 22.6144 17.9092 22.6164 12.77C22.6174 10.2795 21.6485 7.93767 19.8882 6.17589ZM13.2927 20.5165H13.2896C11.899 20.516 10.5351 20.1426 9.34527 19.4367L9.06227 19.2688L6.12922 20.038L6.91211 17.1792L6.7278 16.8861C5.95207 15.6526 5.54236 14.227 5.54297 12.7632C5.54465 8.49174 9.02111 5.0166 13.2957 5.0166C15.3656 5.01739 17.3114 5.8243 18.7745 7.28861C20.2376 8.75291 21.0429 10.6994 21.0422 12.7694C21.0405 17.0412 17.5641 20.5165 13.2927 20.5165ZM17.5435 14.7144C17.3105 14.5978 16.1652 14.0344 15.9516 13.9567C15.7381 13.8789 15.5828 13.8401 15.4274 14.0733C15.2721 14.3064 14.8257 14.831 14.6897 14.9864C14.5538 15.1419 14.4179 15.1613 14.185 15.0447C13.952 14.9281 13.2014 14.6822 12.3115 13.8888C11.619 13.2713 11.1514 12.5086 11.0155 12.2754C10.8796 12.0422 11.001 11.9162 11.1177 11.8001C11.2225 11.6957 11.3506 11.5281 11.4671 11.3921C11.5836 11.2561 11.6224 11.1589 11.7001 11.0035C11.7777 10.848 11.7389 10.712 11.6807 10.5955C11.6224 10.4789 11.1565 9.33255 10.9624 8.86625C10.7733 8.41212 10.5812 8.47356 10.4382 8.46643C10.3024 8.45967 10.147 8.45825 9.99167 8.45825C9.83638 8.45825 9.58397 8.51652 9.37044 8.74969C9.1569 8.98285 8.55507 9.54629 8.55507 10.6926C8.55507 11.8389 9.38983 12.9464 9.50633 13.1018C9.62282 13.2572 11.1491 15.6097 13.4861 16.6184C14.0419 16.8584 14.4759 17.0017 14.8142 17.109C15.3723 17.2862 15.8802 17.2613 16.2816 17.2013C16.7292 17.1345 17.6599 16.6379 17.8541 16.0939C18.0483 15.5499 18.0482 15.0836 17.99 14.9864C17.9318 14.8893 17.7765 14.831 17.5435 14.7144Z" fill="white"/>
</g>
<defs>
<linearGradient id="paint0_linear" x1="13.0006" y1="0.0244141" x2="13.0006" y2="26.0256" gradientUnits="userSpaceOnUse">
<stop stop-color="#61FD7D"/>
<stop offset="1" stop-color="#2BB826"/>
</linearGradient>
<clipPath id="clip0">
<rect width="26" height="26" fill="white"/>
</clipPath>
</defs>
</svg>
